{
.appVersion = "1286";
copyright = "Copyright 2011 The Montserrat Project Authors (https://github.com/JulietaUla/Montserrat)";
customParameters = (
{
name = vendorID;
value = "ULA ";
},
{
name = panose;
value = (
0,
0,
9,
0,
0,
0,
0,
0,
0,
0
);
},
{
name = unicodeRanges;
value = (
0,
1,
2,
3,
9,
29,
32,
33
);
},
{
name = fsType;
value = (
);
}
);
date = "2017-10-17 18:36:54 +0000";
designer = "Julieta Ulanovsky";
designerURL = "http://www.zkysky.com.ar/";
disablesAutomaticAlignment = 1;
familyName = "Montserrat FFS";
featurePrefixes = (
{

glyphs = (
{
glyphname = A;
layers = (
{
layerId = "4A38D2CF-722B-4995-83FB-3A8ED46F73E6";
paths = (
{
closed = 1;
nodes = (
"594 0 LINE",
"800 0 LINE",
"490 700 LINE",
"295 700 LINE",
"-14 0 LINE",
"188 0 LINE",
"243 136 LINE",
"539 136 LINE",
"539 136 LINE"
);
},
{
closed = 1;
nodes = (
"301 282 LINE",
"391 506 LINE",
"481 282 LINE",
"481 282 LINE"
);
}
);
userData = {
assembly = "NPUSHB[ ]	/* 40 values pushed */\0129 1 4 2 1 74 5 1 4 0 0 1 4 0 102 0 2 2 66 75 3 1 1 1 67 1 76 8 8 8 10 8 10 17 17 17 16 6 10 24 \012CALL[ ]	/* CallFunction */";
};
width = 786;
}
);
leftKerningGroup = A;
note = A;
rightKerningGroup = A;
unicode = 0041;
},
{
glyphname = B;
layers = (
{
layerId = "4A38D2CF-722B-4995-83FB-3A8ED46F73E6";
paths = (
{
closed = 1;
nodes = (
"653 388 OFFCURVE",
"702 467 OFFCURVE",
"702 517 QCURVE SMOOTH",
"702 601 OFFCURVE",
"562 700 OFFCURVE",
"428 700 QCURVE SMOOTH",
"70 700 LINE",
"70 0 LINE",
"448 0 LINE SMOOTH",
"588 0 OFFCURVE",
"736 100 OFFCURVE",
"736 192 QCURVE SMOOTH",
"736 255 OFFCURVE",
"668 344 OFFCURVE",
"608 365 QCURVE",
"608 365 LINE"
);
},
{
closed = 1;
nodes = (
"402 557 LINE SMOOTH",
"502 557 OFFCURVE",
"502 490 QCURVE SMOOTH",
"502 422 OFFCURVE",
"402 422 QCURVE SMOOTH",
"266 422 LINE",
"266 557 LINE",
"266 557 LINE"
);
},
{
closed = 1;
nodes = (
"266 143 LINE",
"266 285 LINE",
"432 285 LINE SMOOTH",
"536 285 OFFCURVE",
"536 214 QCURVE SMOOTH",
"536 143 OFFCURVE",
"432 143 QCURVE",
"432 143 LINE"
);
}
);
userData = {
assembly = "NPUSHB[ ]	/* 57 values pushed */\01214 1 4 2 1 74 0 2 0 4 5 2 4 101 6 1 3 3 1 93 0 1 1 66 75 7 1 5 5 0 93 0 0 0 67 0 76 22 22 15 15 22 28 22 27 26 24 15 21 15 20 39 33 36 8 10 23 \012CALL[ ]	/* CallFunction */";
};
width = 769;
}
);
leftKerningGroup = B;
note = B;
rightKerningGroup = B;
unicode = 0042;
},
{
glyphname = C;
layers = (
{
layerId = "4A38D2CF-722B-4995-83FB-3A8ED46F73E6";
paths = (
{
closed = 1;
nodes = (
"515 -14 OFFCURVE",
"669 54 OFFCURVE",
"720 118 QCURVE",
"594 232 LINE",
"526 150 OFFCURVE",
"429 150 QCURVE SMOOTH",
"372 150 OFFCURVE",
"283 200 OFFCURVE",
"234 291 OFFCURVE",
"234 350 QCURVE SMOOTH",
"234 409 OFFCURVE",
"283 500 OFFCURVE",
"372 550 OFFCURVE",
"429 550 QCURVE SMOOTH",
"526 550 OFFCURVE",
"594 468 QCURVE",
"720 582 LINE",
"669 646 OFFCURVE",
"515 714 OFFCURVE",
"419 714 QCURVE SMOOTH",
"309 714 OFFCURVE",
"134 621 OFFCURVE",
"34 455 OFFCURVE",
"34 350 QCURVE SMOOTH",
"34 245 OFFCURVE",
"134 79 OFFCURVE",
"309 -14 OFFCURVE",
"419 -14 QCURVE",
"419 -14 LINE"
);
}
);
userData = {
assembly = "NPUSHB[ ]	/* 49 values pushed */\01210 1 1 0 23 11 2 2 1 24 1 3 2 3 74 0 1 1 0 95 0 0 0 72 75 0 2 2 3 95 4 1 3 3 73 3 76 0 0 0 27 0 26 38 36 38 5 10 23 \012CALL[ ]	/* CallFunction */";
};
width = 738;
}
);
leftKerningGroup = C;
note = C;
rightKerningGroup = C;
unicode = 0043;
},
{
glyphname = D;
layers = (
{
layerId = "4A38D2CF-722B-4995-83FB-3A8ED46F73E6";
paths = (
{
closed = 1;
nodes = (
"70 0 LINE",
"401 0 LINE SMOOTH",
"516 0 OFFCURVE",
"694 86 OFFCURVE",
"792 244 OFFCURVE",
"792 350 QCURVE SMOOTH",
"792 456 OFFCURVE",
"694 614 OFFCURVE",
"516 700 OFFCURVE",
"401 700 QCURVE SMOOTH",
"70 700 LINE",
"70 700 LINE"
);
},
{
closed = 1;
nodes = (
"268 158 LINE",
"268 542 LINE",
"393 542 LINE SMOOTH",
"483 542 OFFCURVE",
"592 440 OFFCURVE",
"592 350 QCURVE SMOOTH",
"592 260 OFFCURVE",
"483 158 OFFCURVE",
"393 158 QCURVE",
"393 158 LINE"
);
}
);
userData = {
assembly = "NPUSHB[ ]	/* 35 values pushed */\0120 3 3 0 93 0 0 0 66 75 4 1 2 2 1 93 0 1 1 67 1 76 12 11 18 16 11 19 12 19 38 32 5 10 22 \012CALL[ ]	/* CallFunction */";
};
width = 826;
}
);
leftKerningGroup = B;
note = D;
rightKerningGroup = D;
unicode = 0044;
},
{
glyphname = E;
layers = (
{
layerId = "4A38D2CF-722B-4995-83FB-3A8ED46F73E6";
paths = (
{
closed = 1;
nodes = (
"266 153 LINE",
"266 281 LINE",
"577 281 LINE",
"577 429 LINE",
"266 429 LINE",
"266 547 LINE",
"619 547 LINE",
"619 700 LINE",
"70 700 LINE",
"70 0 LINE",
"632 0 LINE",
"632 153 LINE",
"632 153 LINE"
);
}
);
userData = {
assembly = "NPUSHB[ ]	/* 44 values pushed */\0120 3 0 4 5 3 4 101 0 2 2 1 93 0 1 1 66 75 6 1 5 5 0 93 0 0 0 67 0 76 0 0 0 11 0 11 17 17 17 17 17 7 10 25 \012CALL[ ]	/* CallFunction */";
};
width = 672;
}
);
leftKerningGroup = B;
note = E;
rightKerningGroup = AE;
unicode = 0045;
},
{
glyphname = F;
layers = (
{
layerId = "4A38D2CF-722B-4995-83FB-3A8ED46F73E6";
paths = (
{
closed = 1;
nodes = (
"619 547 LINE",
"619 700 LINE",
"70 700 LINE",
"70 0 LINE",
"268 0 LINE",
"268 240 LINE",
"577 240 LINE",
"577 393 LINE",
"268 393 LINE",
"268 547 LINE",
"268 547 LINE"
);
}
);
userData = {
assembly = "NPUSHB[ ]	/* 38 values pushed */\0120 0 0 1 2 0 1 101 5 1 4 4 3 93 0 3 3 66 75 0 2 2 67 2 76 0 0 0 9 0 9 17 17 17 17 6 10 24 \012CALL[ ]	/* CallFunction */";
};
width = 642;
}
);
leftKerningGroup = B;
note = F;
rightKerningGroup = F;
unicode = 0046;
},
{
glyphname = G;
layers = (
{
layerId = "4A38D2CF-722B-4995-83FB-3A8ED46F73E6";
paths = (
{
closed = 1;
nodes = (
"539 173 LINE",
"489 150 OFFCURVE",
"432 150 QCURVE SMOOTH",
"374 150 OFFCURVE",
"284 201 OFFCURVE",
"234 292 OFFCURVE",
"234 350 QCURVE SMOOTH",
"234 441 OFFCURVE",
"344 550 OFFCURVE",
"434 550 QCURVE SMOOTH",
"533 550 OFFCURVE",
"604 472 QCURVE",
"730 586 LINE",
"678 648 OFFCURVE",
"522 714 OFFCURVE",
"424 714 QCURVE SMOOTH",
"312 714 OFFCURVE",
"134 621 OFFCURVE",
"34 455 OFFCURVE",
"34 350 QCURVE SMOOTH",
"34 245 OFFCURVE",
"134 79 OFFCURVE",
"310 -14 OFFCURVE",
"420 -14 QCURVE SMOOTH",
"498 -14 OFFCURVE",
"654 32 OFFCURVE",
"714 75 QCURVE",
"714 365 LINE",
"539 365 LINE",
"539 365 LINE"
);
}
);
userData = {
assembly = "NPUSHB[ ]	/* 55 values pushed */\01216 1 3 2 17 1 0 3 28 1 4 0 2 1 1 4 4 74 0 0 3 4 3 0 4 126 0 3 3 2 95 0 2 2 72 75 0 4 4 1 95 0 1 1 73 1 76 37 36 38 35 16 5 10 25 \012CALL[ ]	/* CallFunction */";
};
width = 770;
}
);
leftKerningGroup = C;
note = G;
rightKerningGroup = G;
unicode = 0047;
},
{
glyphname = H;
layers = (
{
layerId = "4A38D2CF-722B-4995-83FB-3A8ED46F73E6";
paths = (
{
closed = 1;
nodes = (
"538 700 LINE",
"538 437 LINE",
"268 437 LINE",
"268 700 LINE",
"70 700 LINE",
"70 0 LINE",
"268 0 LINE",
"268 273 LINE",
"538 273 LINE",
"538 0 LINE",
"736 0 LINE",
"736 700 LINE",
"736 700 LINE"
);
}
);
userData = {
assembly = "NPUSHB[ ]	/* 36 values pushed */\0120 4 0 1 0 4 1 101 6 5 2 3 3 66 75 2 1 0 0 67 0 76 0 0 0 11 0 11 17 17 17 17 17 7 10 25 \012CALL[ ]	/* CallFunction */";
};
width = 806;
}
);
leftKerningGroup = B;
note = H;
rightKerningGroup = H;
unicode = 0048;
},
{
glyphname = I;
layers = (
{
layerId = "4A38D2CF-722B-4995-83FB-3A8ED46F73E6";
paths = (
{
closed = 1;
nodes = (
"70 0 LINE",
"268 0 LINE",
"268 700 LINE",
"70 700 LINE",
"70 700 LINE"
);
}
);
userData = {
assembly = "NPUSHB[ ]	/* 16 values pushed */\0120 0 0 66 75 0 1 1 67 1 76 17 16 2 10 22 \012CALL[ ]	/* CallFunction */";
};
width = 339;
}
);
leftKerningGroup = B;
note = I;
rightKerningGroup = H;
unicode = 0049;
},
{
glyphname = J;
layers = (
{
layerId = "4A38D2CF-722B-4995-83FB-3A8ED46F73E6";
paths = (
{
closed = 1;
nodes = (
"356 -14 OFFCURVE",
"493 122 OFFCURVE",
"493 258 QCURVE SMOOTH",
"493 700 LINE",
"55 700 LINE",
"55 547 LINE",
"297 547 LINE",
"297 246 LINE SMOOTH",
"297 196 OFFCURVE",
"252 144 OFFCURVE",
"209 144 QCURVE SMOOTH",
"144 144 OFFCURVE",
"88 217 QCURVE",
"-20 89 LINE",
"20 39 OFFCURVE",
"146 -14 OFFCURVE",
"223 -14 QCURVE",
"223 -14 LINE"
);
}
);
userData = {
assembly = "NPUSHB[ ]	/* 44 values pushed */\0123 1 0 1 2 1 3 0 2 74 0 1 1 2 93 0 2 2 66 75 0 0 0 3 95 4 1 3 3 73 3 76 0 0 0 16 0 15 17 19 36 5 10 23 \012CALL[ ]	/* CallFunction */";
};
width = 557;
}
);
leftKerningGroup = J;
note = J;
rightKerningGroup = IJ;
unicode = 004A;
},
{
glyphname = K;
layers = (
{
layerId = "4A38D2CF-722B-4995-83FB-3A8ED46F73E6";
paths = (
{
closed = 1;
nodes = (
"540 0 LINE",
"770 0 LINE",
"469 390 LINE",
"755 700 LINE",
"537 700 LINE",
"266 409 LINE",
"266 700 LINE",
"70 700 LINE",
"70 0 LINE",
"266 0 LINE",
"266 175 LINE",
"340 254 LINE",
"340 254 LINE"
);
}
);
userData = {
assembly = "NPUSHB[ ]	/* 28 values pushed */\0129 6 1 3 0 1 1 74 2 1 1 1 66 75 3 1 0 0 67 0 76 18 18 17 18 4 10 24 \012CALL[ ]	/* CallFunction */";
};
width = 752;
}
);
leftKerningGroup = B;
note = K;
rightKerningGroup = K;
unicode = 004B;
},
{
glyphname = L;
layers = (
{
layerId = "4A38D2CF-722B-4995-83FB-3A8ED46F73E6";
paths = (
{
closed = 1;
nodes = (
"70 0 LINE",
"602 0 LINE",
"602 157 LINE",
"268 157 LINE",
"268 700 LINE",
"70 700 LINE",
"70 700 LINE"
);
}
);
userData = {
assembly = "NPUSHB[ ]	/* 22 values pushed */\0120 0 0 66 75 0 1 1 2 94 0 2 2 67 2 76 17 17 16 3 10 23 \012CALL[ ]	/* CallFunction */";
};
width = 610;
}
);
leftKerningGroup = B;
note = L;
rightKerningGroup = L;
unicode = 004C;
},
{
glyphname = M;
layers = (
{
layerId = "4A38D2CF-722B-4995-83FB-3A8ED46F73E6";
paths = (
{
closed = 1;
nodes = (
"884 0 LINE",
"882 700 LINE",
"719 700 LINE",
"479 296 LINE",
"233 700 LINE",
"70 700 LINE",
"70 0 LINE",
"253 0 LINE",
"253 361 LINE",
"432 69 LINE",
"520 69 LINE",
"700 371 LINE",
"702 0 LINE",
"702 0 LINE"
);
}
);
userData = {
assembly = "NPUSHB[ ]	/* 43 values pushed */\0129 4 1 3 0 2 1 74 0 0 2 1 2 0 1 126 3 1 2 2 66 75 5 4 2 1 1 67 1 76 0 0 0 12 0 12 18 17 18 18 6 10 24 \012CALL[ ]	/* CallFunction */";
};
width = 954;
}
);
leftKerningGroup = B;
note = M;
rightKerningGroup = H;
unicode = 004D;
},
{
glyphname = N;
layers = (
{
layerId = "4A38D2CF-722B-4995-83FB-3A8ED46F73E6";
paths = (
{
closed = 1;
nodes = (
"542 700 LINE",
"542 327 LINE",
"233 700 LINE",
"70 700 LINE",
"70 0 LINE",
"264 0 LINE",
"264 373 LINE",
"573 0 LINE",
"736 0 LINE",
"736 700 LINE",
"736 700 LINE"
);
}
);
userData = {
assembly = "NPUSHB[ ]	/* 33 values pushed */\0128 3 2 0 2 1 74 4 3 2 2 2 66 75 1 1 0 0 67 0 76 0 0 0 9 0 9 17 18 17 5 10 23 \012CALL[ ]	/* CallFunction */";
};
width = 806;
}
);
leftKerningGroup = B;
note = N;
rightKerningGroup = H;
unicode = 004E;
},
{
glyphname = O;
layers = (
{
layerId = "4A38D2CF-722B-4995-83FB-3A8ED46F73E6";
paths = (
{
closed = 1;
nodes = (
"534 -14 OFFCURVE",
"711 80 OFFCURVE",
"812 246 OFFCURVE",
"812 350 QCURVE SMOOTH",
"812 454 OFFCURVE",
"711 620 OFFCURVE",
"534 714 OFFCURVE",
"423 714 QCURVE SMOOTH",
"312 714 OFFCURVE",
"135 620 OFFCURVE",
"34 454 OFFCURVE",
"34 350 QCURVE SMOOTH",
"34 246 OFFCURVE",
"135 80 OFFCURVE",
"312 -14 OFFCURVE",
"423 -14 QCURVE",
"423 -14 LINE"
);
},
{
closed = 1;
nodes = (
"370 150 OFFCURVE",
"284 200 OFFCURVE",
"234 291 OFFCURVE",
"234 350 QCURVE SMOOTH",
"234 409 OFFCURVE",
"284 500 OFFCURVE",
"370 550 OFFCURVE",
"423 550 QCURVE SMOOTH",
"476 550 OFFCURVE",
"562 500 OFFCURVE",
"612 409 OFFCURVE",
"612 350 QCURVE SMOOTH",
"612 291 OFFCURVE",
"562 200 OFFCURVE",
"476 150 OFFCURVE",
"423 150 QCURVE",
"423 150 LINE"
);
}
);
userData = {
assembly = "NPUSHB[ ]	/* 41 values pushed */\0120 2 2 0 95 0 0 0 72 75 5 1 3 3 1 95 4 1 1 1 73 1 76 16 16 0 0 16 31 16 30 24 22 0 15 0 14 38 6 10 21 \012CALL[ ]	/* CallFunction */";
};
width = 846;
}
);
leftKerningGroup = C;
note = O;
rightKerningGroup = D;
unicode = 004F;
},
{
glyphname = P;
layers = (
{
layerId = "4A38D2CF-722B-4995-83FB-3A8ED46F73E6";
paths = (
{
closed = 1;
nodes = (
"70 700 LINE",
"70 0 LINE",
"268 0 LINE",
"268 183 LINE",
"390 183 LINE SMOOTH",
"485 183 OFFCURVE",
"625 246 OFFCURVE",
"701 362 OFFCURVE",
"701 441 QCURVE SMOOTH",
"701 520 OFFCURVE",
"625 637 OFFCURVE",
"485 700 OFFCURVE",
"390 700 QCURVE",
"390 700 LINE"
);
},
{
closed = 1;
nodes = (
"268 339 LINE",
"268 544 LINE",
"378 544 LINE SMOOTH",
"439 544 OFFCURVE",
"501 490 OFFCURVE",
"501 441 QCURVE SMOOTH",
"501 392 OFFCURVE",
"439 339 OFFCURVE",
"378 339 QCURVE",
"378 339 LINE"
);
}
);
userData = {
assembly = "NPUSHB[ ]	/* 45 values pushed */\0126 1 4 0 0 1 4 0 101 0 3 3 2 93 5 1 2 2 66 75 0 1 1 67 1 76 13 13 0 0 13 21 13 20 19 17 0 12 0 11 17 38 7 10 22 \012CALL[ ]	/* CallFunction */";
};
width = 737;
}
);
leftKerningGroup = B;
note = P;
rightKerningGroup = P;
unicode = 0050;
},
{
glyphname = Q;
layers = (
{
layerId = "4A38D2CF-722B-4995-83FB-3A8ED46F73E6";
paths = (
{
closed = 1;
nodes = (
"762 21 LINE",
"715 -28 OFFCURVE",
"656 -28 QCURVE SMOOTH",
"633 -28 OFFCURVE",
"594 -10 OFFCURVE",
"574 12 QCURVE",
"683 51 OFFCURVE",
"812 232 OFFCURVE",
"812 350 QCURVE SMOOTH",
"812 454 OFFCURVE",
"711 620 OFFCURVE",
"534 714 OFFCURVE",
"423 714 QCURVE SMOOTH",
"312 714 OFFCURVE",
"135 620 OFFCURVE",
"34 454 OFFCURVE",
"34 350 QCURVE SMOOTH",
"34 259 OFFCURVE",
"113 107 OFFCURVE",
"255 7 OFFCURVE",
"346 -8 QCURVE",
"405 -70 OFFCURVE",
"500 -139 OFFCURVE",
"594 -169 OFFCURVE",
"652 -169 QCURVE SMOOTH",
"712 -169 OFFCURVE",
"813 -124 OFFCURVE",
"848 -81 QCURVE",
"848 -81 LINE"
);
},
{
closed = 1;
nodes = (
"234 409 OFFCURVE",
"284 500 OFFCURVE",
"370 550 OFFCURVE",
"423 550 QCURVE SMOOTH",
"476 550 OFFCURVE",
"562 500 OFFCURVE",
"612 409 OFFCURVE",
"612 350 QCURVE SMOOTH",
"612 291 OFFCURVE",
"562 200 OFFCURVE",
"476 150 OFFCURVE",
"423 150 QCURVE SMOOTH",
"370 150 OFFCURVE",
"284 200 OFFCURVE",
"234 291 OFFCURVE",
"234 350 QCURVE",
"234 350 LINE"
);
}
);
userData = {
assembly = "NPUSHB[ ]	/* 41 values pushed */\01227 22 2 2 3 1 74 0 3 4 2 4 3 2 126 0 2 0 0 2 0 99 0 4 4 1 95 0 1 1 72 4 76 38 36 40 42 34 5 10 25 \012CALL[ ]	/* CallFunction */";
};
width = 846;
}
);
leftKerningGroup = C;
note = Q;
rightKerningGroup = D;
unicode = 0051;
},
{
glyphname = R;
layers = (
{
layerId = "4A38D2CF-722B-4995-83FB-3A8ED46F73E6";
paths = (
{
closed = 1;
nodes = (
"503 0 LINE",
"715 0 LINE",
"564 220 LINE",
"630 252 OFFCURVE",
"701 365 OFFCURVE",
"701 441 QCURVE SMOOTH",
"701 520 OFFCURVE",
"625 637 OFFCURVE",
"485 700 OFFCURVE",
"390 700 QCURVE SMOOTH",
"70 700 LINE",
"70 0 LINE",
"268 0 LINE",
"268 186 LINE",
"376 186 LINE",
"376 186 LINE"
);
},
{
closed = 1;
nodes = (
"501 392 OFFCURVE",
"439 339 OFFCURVE",
"378 339 QCURVE SMOOTH",
"268 339 LINE",
"268 544 LINE",
"378 544 LINE SMOOTH",
"439 544 OFFCURVE",
"501 490 OFFCURVE",
"501 441 QCURVE",
"501 441 LINE"
);
}
);
userData = {
assembly = "NPUSHB[ ]	/* 40 values pushed */\01212 1 0 5 1 74 0 5 0 0 1 5 0 101 0 4 4 2 93 0 2 2 66 75 3 1 1 1 67 1 76 33 34 23 33 17 16 6 10 26 \012CALL[ ]	/* CallFunction */";
};
width = 740;
}
);
leftKerningGroup = B;
note = R;
rightKerningGroup = R;
unicode = 0052;
},
{
glyphname = S;
layers = (
{
layerId = "4A38D2CF-722B-4995-83FB-3A8ED46F73E6";
paths = (
{
closed = 1;
nodes = (
"416 -14 OFFCURVE",
"556 47 OFFCURVE",
"626 149 OFFCURVE",
"626 212 QCURVE SMOOTH",
"626 285 OFFCURVE",
"549 370 OFFCURVE",
"444 409 OFFCURVE",
"364 426 QCURVE SMOOTH",
"293 441 OFFCURVE",
"229 469 OFFCURVE",
"229 497 QCURVE SMOOTH",
"229 525 OFFCURVE",
"283 560 OFFCURVE",
"342 560 QCURVE SMOOTH",
"436 560 OFFCURVE",
"536 506 QCURVE",
"597 653 LINE",
"546 683 OFFCURVE",
"412 714 OFFCURVE",
"343 714 QCURVE SMOOTH",
"242 714 OFFCURVE",
"103 654 OFFCURVE",
"33 551 OFFCURVE",
"33 487 QCURVE SMOOTH",
"33 414 OFFCURVE",
"109 328 OFFCURVE",
"215 289 OFFCURVE",
"294 272 QCURVE SMOOTH",
"366 256 OFFCURVE",
"431 227 OFFCURVE",
"431 197 QCURVE SMOOTH",
"431 140 OFFCURVE",
"317 140 QCURVE SMOOTH",
"257 140 OFFCURVE",
"133 178 OFFCURVE",
"86 209 QCURVE",
"21 63 LINE",
"71 28 OFFCURVE",
"231 -14 OFFCURVE",
"316 -14 QCURVE",
"316 -14 LINE"
);
}
);
userData = {
assembly = "NPUSHB[ ]	/* 49 values pushed */\01222 1 2 1 23 3 2 0 2 2 1 3 0 3 74 0 2 2 1 95 0 1 1 72 75 0 0 0 3 95 4 1 3 3 73 3 76 0 0 0 39 0 38 36 43 37 5 10 23 \012CALL[ ]	/* CallFunction */";
};
width = 647;
}
);
leftKerningGroup = S;
note = S;
rightKerningGroup = S;
unicode = 0053;
},
{
glyphname = T;
layers = (
{
layerId = "4A38D2CF-722B-4995-83FB-3A8ED46F73E6";
paths = (
{
closed = 1;
nodes = (
"219 0 LINE",
"417 0 LINE",
"417 543 LINE",
"631 543 LINE",
"631 700 LINE",
"4 700 LINE",
"4 543 LINE",
"219 543 LINE",
"219 543 LINE"
);
}
);
userData = {
assembly = "NPUSHB[ ]	/* 24 values pushed */\0122 1 0 0 1 93 0 1 1 66 75 0 3 3 67 3 76 17 17 17 16 4 10 24 \012CALL[ ]	/* CallFunction */";
};
width = 635;
}
);
leftKerningGroup = T;
note = T;
rightKerningGroup = T;
unicode = 0054;
},
{
glyphname = U;
layers = (
{
layerId = "4A38D2CF-722B-4995-83FB-3A8ED46F73E6";
paths = (
{
closed = 1;
nodes = (
"549 -14 OFFCURVE",
"722 156 OFFCURVE",
"722 312 QCURVE SMOOTH",
"722 700 LINE",
"527 700 LINE",
"527 318 LINE SMOOTH",
"527 150 OFFCURVE",
"395 150 QCURVE SMOOTH",
"262 150 OFFCURVE",
"262 318 QCURVE SMOOTH",
"262 700 LINE",
"64 700 LINE",
"64 312 LINE SMOOTH",
"64 156 OFFCURVE",
"237 -14 OFFCURVE",
"393 -14 QCURVE",
"393 -14 LINE"
);
}
);
userData = {
assembly = "NPUSHB[ ]	/* 30 values pushed */\0122 1 0 0 66 75 0 1 1 3 96 4 1 3 3 73 3 76 0 0 0 15 0 14 18 34 19 5 10 23 \012CALL[ ]	/* CallFunction */";
};
width = 786;
}
);
leftKerningGroup = U;
note = U;
rightKerningGroup = IJ;
unicode = 0055;
},
{
glyphname = V;
layers = (
{
layerId = "4A38D2CF-722B-4995-83FB-3A8ED46F73E6";
paths = (
{
closed = 1;
nodes = (
"584 700 LINE",
"390 244 LINE",
"200 700 LINE",
"-14 700 LINE",
"285 0 LINE",
"480 0 LINE",
"780 700 LINE",
"780 700 LINE"
);
}
);
userData = {
assembly = "NPUSHB[ ]	/* 30 values pushed */\0125 1 0 1 1 74 3 2 2 1 1 66 75 0 0 0 67 0 76 0 0 0 6 0 6 17 17 4 10 22 \012CALL[ ]	/* CallFunction */";
};
width = 766;
}
);
leftKerningGroup = V;
note = V;
rightKerningGroup = V;
unicode = 0056;
},
{
glyphname = W;
layers = (
{
layerId = "4A38D2CF-722B-4995-83FB-3A8ED46F73E6";
paths = (
{
closed = 1;
nodes = (
"979 700 LINE",
"832 249 LINE",
"691 700 LINE",
"509 700 LINE",
"361 253 LINE",
"220 700 LINE",
"16 700 LINE",
"243 0 LINE",
"455 0 LINE",
"595 426 LINE",
"729 0 LINE",
"941 0 LINE",
"1168 700 LINE",
"1168 700 LINE"
);
}
);
userData = {
assembly = "NPUSHB[ ]	/* 36 values pushed */\01211 8 3 3 0 2 1 74 5 4 3 3 2 2 66 75 1 1 0 0 67 0 76 0 0 0 12 0 12 18 17 18 17 6 10 24 \012CALL[ ]	/* CallFunction */";
};
width = 1184;
}
);
leftKerningGroup = V;
note = W;
rightKerningGroup = V;
unicode = 0057;
},
{
glyphname = X;
layers = (
{
layerId = "4A38D2CF-722B-4995-83FB-3A8ED46F73E6";
paths = (
{
closed = 1;
nodes = (
"740 0 LINE",
"480 362 LINE",
"724 700 LINE",
"510 700 LINE",
"372 498 LINE",
"232 700 LINE",
"9 700 LINE",
"253 354 LINE",
"-2 0 LINE",
"224 0 LINE",
"367 217 LINE",
"512 0 LINE",
"512 0 LINE"
);
}
);
userData = {
assembly = "NPUSHB[ ]	/* 35 values pushed */\01210 7 4 1 4 0 1 1 74 2 1 1 1 66 75 4 3 2 0 0 67 0 76 0 0 0 11 0 11 18 18 18 5 10 23 \012CALL[ ]	/* CallFunction */";
};
width = 737;
}
);
leftKerningGroup = X;
note = X;
rightKerningGroup = X;
unicode = 0058;
},
{
glyphname = Y;
layers = (
{
layerId = "4A38D2CF-722B-4995-83FB-3A8ED46F73E6";
paths = (
{
closed = 1;
nodes = (
"713 700 LINE",
"521 700 LINE",
"355 422 LINE",
"189 700 LINE",
"-20 700 LINE",
"247 254 LINE",
"247 0 LINE",
"445 0 LINE",
"445 251 LINE",
"445 251 LINE"
);
}
);
userData = {
assembly = "NPUSHB[ ]	/* 26 values pushed */\0126 3 0 3 0 1 1 74 2 1 1 1 66 75 0 0 0 67 0 76 18 18 17 3 10 23 \012CALL[ ]	/* CallFunction */";
};
width = 693;
}
);
leftKerningGroup = Y;
note = Y;
rightKerningGroup = Y;
unicode = 0059;
},
{
glyphname = Z;
layers = (
{
layerId = "4A38D2CF-722B-4995-83FB-3A8ED46F73E6";
paths = (
{
closed = 1;
nodes = (
"294 157 LINE",
"647 576 LINE",
"647 700 LINE",
"44 700 LINE",
"44 543 LINE",
"388 543 LINE",
"35 124 LINE",
"35 0 LINE",
"662 0 LINE",
"662 157 LINE",
"662 157 LINE"
);
}
);
userData = {
assembly = "NPUSHB[ ]	/* 44 values pushed */\0128 1 1 2 3 1 0 3 2 74 0 1 1 2 93 0 2 2 66 75 4 1 3 3 0 93 0 0 0 67 0 76 0 0 0 9 0 9 17 18 17 5 10 23 \012CALL[ ]	/* CallFunction */";
};
width = 679;
}
);
leftKerningGroup = Z;
note = Z;
rightKerningGroup = DZcaron;
unicode = 005A;
},
{
glyphname = a;
layers = (
{
layerId = "4A38D2CF-722B-4995-83FB-3A8ED46F73E6";
paths = (
{
closed = 1;
nodes = (
"227 551 OFFCURVE",
"98 518 OFFCURVE",
"53 488 QCURVE",
"117 359 LINE",
"145 381 OFFCURVE",
"225 406 OFFCURVE",
"264 406 QCURVE SMOOTH",
"374 406 OFFCURVE",
"379 320 QCURVE",
"271 320 LINE SMOOTH",
"148 320 OFFCURVE",
"30 235 OFFCURVE",
"30 158 QCURVE SMOOTH",
"30 110 OFFCURVE",
"77 35 OFFCURVE",
"169 -9 OFFCURVE",
"232 -9 QCURVE SMOOTH",
"351 -9 OFFCURVE",
"392 70 QCURVE",
"392 0 LINE",
"569 0 LINE",
"569 301 LINE SMOOTH",
"569 428 OFFCURVE",
"427 551 OFFCURVE",
"292 551 QCURVE",
"292 551 LINE"
);
},
{
closed = 1;
nodes = (
"252 111 OFFCURVE",
"214 141 OFFCURVE",
"214 166 QCURVE SMOOTH",
"214 221 OFFCURVE",
"297 221 QCURVE SMOOTH",
"379 221 LINE",
"379 174 LINE",
"368 143 OFFCURVE",
"318 111 OFFCURVE",
"285 111 QCURVE",
"285 111 LINE"
);
}
);
userData = {
assembly = "NPUSHB[ ]	/* 18 values pushed */\01221 1 3 4 20 1 2 3 27 1 6 5 5 1 0 6 4 74 \012MPPEM[ ]	/* MeasurePixelPerEm */\012PUSHB[ ]	/* 1 value pushed */\01227 \012LT[ ]	/* LessThan */\012IF[ ]	/* If */\012NPUSHB[ ]	/* 32 values pushed */\0120 2 0 5 6 2 5 101 0 3 3 4 95 7 1 4 4 75 75 8 1 6 6 0 95 1 1 0 0 67 0 76 \012ELSE[ ]	/* Else */\012NPUSHB[ ]	/* 36 values pushed */\0120 2 0 5 6 2 5 101 0 3 3 4 95 7 1 4 4 75 75 0 0 0 67 75 8 1 6 6 1 95 0 1 1 76 1 76 \012EIF[ ]	/* EndIf */\012NPUSHB[ ]	/* 21 values pushed */\01225 25 0 0 25 34 25 33 30 28 0 24 0 23 33 37 34 19 9 10 24 \012CALL[ ]	/* CallFunction */";
};
width = 628;
}
);
leftKerningGroup = a;
note = a;
rightKerningGroup = a;
unicode = 0061;
},
{
glyphname = b;
layers = (
{
layerId = "4A38D2CF-722B-4995-83FB-3A8ED46F73E6";
paths = (
{
closed = 1;
nodes = (
"306 551 OFFCURVE",
"251 495 QCURVE",
"251 742 LINE",
"61 742 LINE",
"61 0 LINE",
"242 0 LINE",
"242 54 LINE",
"295 -9 OFFCURVE",
"402 -9 QCURVE SMOOTH",
"476 -9 OFFCURVE",
"597 60 OFFCURVE",
"668 188 OFFCURVE",
"668 272 QCURVE SMOOTH",
"668 356 OFFCURVE",
"597 483 OFFCURVE",
"476 551 OFFCURVE",
"402 551 QCURVE",
"402 551 LINE"
);
},
{
closed = 1;
nodes = (
"312 142 OFFCURVE",
"248 211 OFFCURVE",
"248 272 QCURVE SMOOTH",
"248 332 OFFCURVE",
"312 400 OFFCURVE",
"362 400 QCURVE SMOOTH",
"412 400 OFFCURVE",
"476 332 OFFCURVE",
"476 272 QCURVE SMOOTH",
"476 211 OFFCURVE",
"412 142 OFFCURVE",
"362 142 QCURVE",
"362 142 LINE"
);
}
);
userData = {
assembly = "MPPEM[ ]	/* MeasurePixelPerEm */\012PUSHB[ ]	/* 1 value pushed */\01227 \012LT[ ]	/* LessThan */\012IF[ ]	/* If */\012NPUSHB[ ]	/* 10 values pushed */\01214 1 4 3 9 1 0 5 2 74 \012ELSE[ ]	/* Else */\012NPUSHB[ ]	/* 10 values pushed */\01214 1 4 3 9 1 1 5 2 74 \012EIF[ ]	/* EndIf */\012MPPEM[ ]	/* MeasurePixelPerEm */\012PUSHB[ ]	/* 1 value pushed */\01212 \012LT[ ]	/* LessThan */\012IF[ ]	/* If */\012NPUSHB[ ]	/* 29 values pushed */\0120 2 2 68 75 0 4 4 3 95 6 1 3 3 75 75 7 1 5 5 0 95 1 1 0 0 76 0 76 \012ELSE[ ]	/* Else */\012MPPEM[ ]	/* MeasurePixelPerEm */\012PUSHB[ ]	/* 1 value pushed */\01227 \012LT[ ]	/* LessThan */\012IF[ ]	/* If */\012NPUSHB[ ]	/* 35 values pushed */\0120 2 2 0 95 1 1 0 0 76 75 0 4 4 3 95 6 1 3 3 75 75 7 1 5 5 0 95 1 1 0 0 76 0 76 \012ELSE[ ]	/* Else */\012NPUSHB[ ]	/* 33 values pushed */\0120 4 4 3 95 6 1 3 3 75 75 0 2 2 1 93 0 1 1 67 75 7 1 5 5 0 95 0 0 0 76 0 76 \012EIF[ ]	/* EndIf */\012EIF[ ]	/* EndIf */\012NPUSHB[ ]	/* 20 values pushed */\01217 17 0 0 17 28 17 27 23 21 0 16 0 15 17 18 38 8 10 23 \012CALL[ ]	/* CallFunction */";
};
width = 695;
}
);
leftKerningGroup = b;
note = b;
rightKerningGroup = b;
unicode = 0062;
},
{
glyphname = c;
layers = (
{
layerId = "4A38D2CF-722B-4995-83FB-3A8ED46F73E6";
paths = (
{
closed = 1;
nodes = (
"430 -9 OFFCURVE",
"564 70 OFFCURVE",
"592 140 QCURVE",
"445 215 LINE",
"408 142 OFFCURVE",
"337 142 QCURVE SMOOTH",
"286 142 OFFCURVE",
"219 211 OFFCURVE",
"219 272 QCURVE SMOOTH",
"219 332 OFFCURVE",
"286 400 OFFCURVE",
"337 400 QCURVE SMOOTH",
"408 400 OFFCURVE",
"445 327 QCURVE",
"592 402 LINE",
"564 472 OFFCURVE",
"430 551 OFFCURVE",
"338 551 QCURVE SMOOTH",
"248 551 OFFCURVE",
"106 480 OFFCURVE",
"27 353 OFFCURVE",
"27 272 QCURVE SMOOTH",
"27 191 OFFCURVE",
"106 63 OFFCURVE",
"248 -9 OFFCURVE",
"338 -9 QCURVE",
"338 -9 LINE"
);
}
);
userData = {
assembly = "NPUSHB[ ]	/* 49 values pushed */\01210 1 1 0 21 11 2 2 1 22 1 3 2 3 74 0 1 1 0 95 0 0 0 75 75 0 2 2 3 95 4 1 3 3 76 3 76 0 0 0 25 0 24 36 36 38 5 10 23 \012CALL[ ]	/* CallFunction */";
};
width = 603;
}
);
leftKerningGroup = c;
note = c;
rightKerningGroup = c;
unicode = 0063;
},
{
glyphname = d;
layers = (
{
layerId = "4A38D2CF-722B-4995-83FB-3A8ED46F73E6";
paths = (
{
closed = 1;
nodes = (
"447 742 LINE",
"447 495 LINE",
"394 551 OFFCURVE",
"297 551 QCURVE SMOOTH",
"223 551 OFFCURVE",
"101 483 OFFCURVE",
"30 356 OFFCURVE",
"30 272 QCURVE SMOOTH",
"30 188 OFFCURVE",
"101 60 OFFCURVE",
"223 -9 OFFCURVE",
"297 -9 QCURVE SMOOTH",
"403 -9 OFFCURVE",
"456 54 QCURVE",
"456 0 LINE",
"637 0 LINE",
"637 742 LINE",
"637 742 LINE"
);
},
{
closed = 1;
nodes = (
"287 142 OFFCURVE",
"223 211 OFFCURVE",
"223 272 QCURVE SMOOTH",
"223 332 OFFCURVE",
"287 400 OFFCURVE",
"337 400 QCURVE SMOOTH",
"387 400 OFFCURVE",
"450 332 OFFCURVE",
"450 272 QCURVE SMOOTH",
"450 211 OFFCURVE",
"386 142 OFFCURVE",
"337 142 QCURVE",
"337 142 LINE"
);
}
);
userData = {
assembly = "NPUSHB[ ]	/* 10 values pushed */\01215 1 4 2 3 1 0 5 2 74 \012MPPEM[ ]	/* MeasurePixelPerEm */\012PUSHB[ ]	/* 1 value pushed */\01212 \012LT[ ]	/* LessThan */\012IF[ ]	/* If */\012NPUSHB[ ]	/* 29 values pushed */\0126 1 3 3 68 75 0 4 4 2 95 0 2 2 75 75 7 1 5 5 0 95 1 1 0 0 67 0 76 \012ELSE[ ]	/* Else */\012MPPEM[ ]	/* MeasurePixelPerEm */\012PUSHB[ ]	/* 1 value pushed */\01227 \012LT[ ]	/* LessThan */\012IF[ ]	/* If */\012NPUSHB[ ]	/* 35 values pushed */\0126 1 3 3 0 95 1 1 0 0 67 75 0 4 4 2 95 0 2 2 75 75 7 1 5 5 0 95 1 1 0 0 67 0 76 \012ELSE[ ]	/* Else */\012NPUSHB[ ]	/* 33 values pushed */\0120 4 4 2 95 0 2 2 75 75 6 1 3 3 0 93 0 0 0 67 75 7 1 5 5 1 95 0 1 1 76 1 76 \012EIF[ ]	/* EndIf */\012EIF[ ]	/* EndIf */\012NPUSHB[ ]	/* 20 values pushed */\01217 17 0 0 17 28 17 27 23 21 0 16 0 16 38 34 17 8 10 23 \012CALL[ ]	/* CallFunction */";
};
width = 698;
}
);
leftKerningGroup = c;
note = d;
rightKerningGroup = d;
unicode = 0064;
},
{
glyphname = e;
layers = (
{
layerId = "4A38D2CF-722B-4995-83FB-3A8ED46F73E6";
paths = (
{
closed = 1;
nodes = (
"615 357 OFFCURVE",
"538 484 OFFCURVE",
"406 551 OFFCURVE",
"325 551 QCURVE SMOOTH",
"240 551 OFFCURVE",
"104 479 OFFCURVE",
"27 352 OFFCURVE",
"27 272 QCURVE SMOOTH",
"27 191 OFFCURVE",
"106 63 OFFCURVE",
"250 -9 OFFCURVE",
"345 -9 QCURVE SMOOTH",
"497 -9 OFFCURVE",
"576 79 QCURVE",
"476 183 LINE",
"447 158 OFFCURVE",
"390 136 OFFCURVE",
"351 136 QCURVE SMOOTH",
"299 136 OFFCURVE",
"230 181 OFFCURVE",
"218 223 QCURVE",
"612 223 LINE",
"615 268 OFFCURVE",
"615 270 QCURVE",
"615 270 LINE"
);
},
{
closed = 1;
nodes = (
"370 416 OFFCURVE",
"429 366 OFFCURVE",
"437 323 QCURVE",
"215 323 LINE",
"223 366 OFFCURVE",
"282 416 OFFCURVE",
"326 416 QCURVE",
"326 416 LINE"
);
}
);
userData = {
assembly = "NPUSHB[ ]	/* 54 values pushed */\0128 1 1 0 9 1 2 1 2 74 0 4 0 0 1 4 0 101 6 1 5 5 3 95 0 3 3 75 75 0 1 1 2 95 0 2 2 76 2 76 24 24 24 30 24 29 22 38 36 34 17 7 10 25 \012CALL[ ]	/* CallFunction */";
};
width = 642;
}
);
leftKerningGroup = c;
note = e;
rightKerningGroup = ae;
unicode = 0065;
},
{
glyphname = f;
layers = (
{
layerId = "4A38D2CF-722B-4995-83FB-3A8ED46F73E6";
paths = (
{
closed = 1;
nodes = (
"268 534 LINE SMOOTH",
"268 569 OFFCURVE",
"301 605 OFFCURVE",
"331 605 QCURVE SMOOTH",
"360 605 OFFCURVE",
"388 589 QCURVE",
"435 723 LINE",
"413 737 OFFCURVE",
"345 751 OFFCURVE",
"309 751 QCURVE SMOOTH",
"202 751 OFFCURVE",
"83 635 OFFCURVE",
"83 536 QCURVE SMOOTH",
"83 522 LINE",
"4 522 LINE",
"4 380 LINE",
"83 380 LINE",
"83 0 LINE",
"273 0 LINE",
"273 380 LINE",
"397 380 LINE",
"397 522 LINE",
"268 522 LINE",
"268 522 LINE"
);
}
);
userData = {
assembly = "NPUSHB[ ]	/* 10 values pushed */\01216 1 6 5 17 1 0 6 2 74 \012MPPEM[ ]	/* MeasurePixelPerEm */\012PUSHB[ ]	/* 1 value pushed */\01212 \012LT[ ]	/* LessThan */\012IF[ ]	/* If */\012NPUSHB[ ]	/* 28 values pushed */\0120 6 6 5 95 0 5 5 68 75 3 1 1 1 0 93 4 1 0 0 69 75 0 2 2 67 2 76 \012ELSE[ ]	/* Else */\012MPPEM[ ]	/* MeasurePixelPerEm */\012PUSHB[ ]	/* 1 value pushed */\01225 \012LT[ ]	/* LessThan */\012IF[ ]	/* If */\012NPUSHB[ ]	/* 26 values pushed */\0120 5 0 6 0 5 6 103 3 1 1 1 0 93 4 1 0 0 69 75 0 2 2 67 2 76 \012ELSE[ ]	/* Else */\012NPUSHB[ ]	/* 24 values pushed */\0120 5 0 6 0 5 6 103 4 1 0 3 1 1 2 0 1 101 0 2 2 67 2 76 \012EIF[ ]	/* EndIf */\012EIF[ ]	/* EndIf */\012NPUSHB[ ]	/* 10 values pushed */\01236 35 17 17 17 17 16 7 10 27 \012CALL[ ]	/* CallFunction */";
};
width = 406;
}
);
note = f;
rightKerningGroup = f;
unicode = 0066;
},
{
glyphname = g;
layers = (
{
layerId = "4A38D2CF-722B-4995-83FB-3A8ED46F73E6";
paths = (
{
closed = 1;
nodes = (
"463 542 LINE",
"463 476 LINE",
"409 551 OFFCURVE",
"293 551 QCURVE SMOOTH",
"221 551 OFFCURVE",
"99 486 OFFCURVE",
"27 367 OFFCURVE",
"27 290 QCURVE SMOOTH",
"27 212 OFFCURVE",
"99 93 OFFCURVE",
"221 28 OFFCURVE",
"293 28 QCURVE SMOOTH",
"399 28 OFFCURVE",
"454 92 QCURVE",
"454 74 LINE SMOOTH",
"454 9 OFFCURVE",
"384 -57 OFFCURVE",
"309 -57 QCURVE SMOOTH",
"260 -57 OFFCURVE",
"159 -26 OFFCURVE",
"126 1 QCURVE",
"57 -132 LINE",
"106 -167 OFFCURVE",
"246 -203 OFFCURVE",
"326 -203 QCURVE SMOOTH",
"480 -203 OFFCURVE",
"644 -52 OFFCURVE",
"644 99 QCURVE SMOOTH",
"644 542 LINE",
"644 542 LINE"
);
},
{
closed = 1;
nodes = (
"287 179 OFFCURVE",
"219 241 OFFCURVE",
"219 290 QCURVE SMOOTH",
"219 339 OFFCURVE",
"286 400 OFFCURVE",
"338 400 QCURVE SMOOTH",
"390 400 OFFCURVE",
"456 339 OFFCURVE",
"456 290 QCURVE SMOOTH",
"456 241 OFFCURVE",
"389 179 OFFCURVE",
"338 179 QCURVE",
"338 179 LINE"
);
}
);
userData = {
assembly = "MPPEM[ ]	/* MeasurePixelPerEm */\012PUSHB[ ]	/* 1 value pushed */\01227 \012LT[ ]	/* LessThan */\012IF[ ]	/* If */\012NPUSHB[ ]	/* 18 values pushed */\01227 1 5 3 15 1 2 6 8 1 1 2 7 1 0 1 4 74 \012ELSE[ ]	/* Else */\012NPUSHB[ ]	/* 18 values pushed */\01227 1 5 4 15 1 2 6 8 1 1 2 7 1 0 1 4 74 \012EIF[ ]	/* EndIf */\012MPPEM[ ]	/* MeasurePixelPerEm */\012PUSHB[ ]	/* 1 value pushed */\01227 \012LT[ ]	/* LessThan */\012IF[ ]	/* If */\012NPUSHB[ ]	/* 32 values pushed */\0128 1 6 0 2 1 6 2 103 0 5 5 3 95 7 4 2 3 3 75 75 0 1 1 0 96 0 0 0 77 0 76 \012ELSE[ ]	/* Else */\012NPUSHB[ ]	/* 36 values pushed */\0128 1 6 0 2 1 6 2 103 7 1 4 4 69 75 0 5 5 3 95 0 3 3 75 75 0 1 1 0 96 0 0 0 77 0 76 \012EIF[ ]	/* EndIf */\012NPUSHB[ ]	/* 21 values pushed */\01229 29 0 0 29 40 29 39 35 33 0 28 0 28 38 36 37 35 9 10 24 \012CALL[ ]	/* CallFunction */";
};
width = 705;
}
);
leftKerningGroup = c;
note = g;
rightKerningGroup = Lj;
unicode = 0067;
},
{
glyphname = h;
layers = (
{
layerId = "4A38D2CF-722B-4995-83FB-3A8ED46F73E6";
paths = (
{
closed = 1;
nodes = (
"366 551 OFFCURVE",
"282 521 OFFCURVE",
"251 492 QCURVE",
"251 742 LINE",
"61 742 LINE",
"61 0 LINE",
"251 0 LINE",
"251 262 LINE SMOOTH",
"251 326 OFFCURVE",
"310 390 OFFCURVE",
"359 390 QCURVE SMOOTH",
"448 390 OFFCURVE",
"448 279 QCURVE SMOOTH",
"448 0 LINE",
"638 0 LINE",
"638 310 LINE SMOOTH",
"638 431 OFFCURVE",
"515 551 OFFCURVE",
"414 551 QCURVE",
"414 551 LINE"
);
}
);
userData = {
assembly = "PUSHB[ ]	/* 6 values pushed */\01215 1 1 4 1 74 \012MPPEM[ ]	/* MeasurePixelPerEm */\012PUSHB[ ]	/* 1 value pushed */\01212 \012LT[ ]	/* LessThan */\012IF[ ]	/* If */\012NPUSHB[ ]	/* 23 values pushed */\0120 3 3 68 75 0 1 1 4 95 5 1 4 4 75 75 2 1 0 0 67 0 76 \012ELSE[ ]	/* Else */\012NPUSHB[ ]	/* 23 values pushed */\0120 1 1 4 95 5 1 4 4 75 75 0 3 3 0 93 2 1 0 0 67 0 76 \012EIF[ ]	/* EndIf */\012NPUSHB[ ]	/* 13 values pushed */\0120 0 0 18 0 17 17 19 34 19 6 10 24 \012CALL[ ]	/* CallFunction */";
};
width = 696;
}
);
leftKerningGroup = b;
note = h;
rightKerningGroup = a;
unicode = 0068;
},
{
glyphname = k;
layers = (
{
layerId = "4A38D2CF-722B-4995-83FB-3A8ED46F73E6";
paths = (
{
closed = 1;
nodes = (
"459 0 LINE",
"689 0 LINE",
"445 310 LINE",
"670 542 LINE",
"445 542 LINE",
"251 353 LINE",
"251 742 LINE",
"61 742 LINE",
"61 0 LINE",
"251 0 LINE",
"251 133 LINE",
"307 190 LINE",
"307 190 LINE"
);
}
);
userData = {
assembly = "PUSHB[ ]	/* 8 values pushed */\0129 6 1 3 0 2 1 74 \012MPPEM[ ]	/* MeasurePixelPerEm */\012PUSHB[ ]	/* 1 value pushed */\01212 \012LT[ ]	/* LessThan */\012IF[ ]	/* If */\012NPUSHB[ ]	/* 17 values pushed */\0120 1 1 68 75 0 2 2 69 75 3 1 0 0 67 0 76 \012ELSE[ ]	/* Else */\012NPUSHB[ ]	/* 23 values pushed */\0120 1 1 0 93 3 1 0 0 67 75 0 2 2 69 75 3 1 0 0 67 0 76 \012EIF[ ]	/* EndIf */\012PUSHB[ ]	/* 7 values pushed */\01218 18 17 18 4 10 24 \012CALL[ ]	/* CallFunction */";
};
width = 686;
}
);
leftKerningGroup = b;
note = k;
rightKerningGroup = k;
unicode = 006B;
},
{
glyphname = l;
layers = (
{
layerId = "4A38D2CF-722B-4995-83FB-3A8ED46F73E6";
paths = (
{
closed = 1;
nodes = (
"61 0 LINE",
"251 0 LINE",
"251 742 LINE",
"61 742 LINE",
"61 742 LINE"
);
}
);
userData = {
assembly = "MPPEM[ ]	/* MeasurePixelPerEm */\012PUSHB[ ]	/* 1 value pushed */\01212 \012LT[ ]	/* LessThan */\012IF[ ]	/* If */\012NPUSHB[ ]	/* 11 values pushed */\0120 0 0 68 75 0 1 1 67 1 76 \012ELSE[ ]	/* Else */\012NPUSHB[ ]	/* 11 values pushed */\0120 0 0 1 93 0 1 1 67 1 76 \012EIF[ ]	/* EndIf */\012PUSHB[ ]	/* 5 values pushed */\01217 16 2 10 22 \012CALL[ ]	/* CallFunction */";
};
width = 313;
}
);
leftKerningGroup = b;
note = l;
rightKerningGroup = d;
unicode = 006C;
},
{
glyphname = m;
layers = (
{
layerId = "4A38D2CF-722B-4995-83FB-3A8ED46F73E6";
paths = (
{
closed = 1;
nodes = (
"709 551 OFFCURVE",
"611 507 OFFCURVE",
"579 466 QCURVE",
"551 509 OFFCURVE",
"461 551 OFFCURVE",
"404 551 QCURVE SMOOTH",
"355 551 OFFCURVE",
"272 518 OFFCURVE",
"242 485 QCURVE",
"242 542 LINE",
"61 542 LINE",
"61 0 LINE",
"251 0 LINE",
"251 269 LINE SMOOTH",
"251 330 OFFCURVE",
"303 390 OFFCURVE",
"347 390 QCURVE SMOOTH",
"429 390 OFFCURVE",
"429 279 QCURVE SMOOTH",
"429 0 LINE",
"619 0 LINE",
"619 269 LINE SMOOTH",
"619 330 OFFCURVE",
"671 390 OFFCURVE",
"714 390 QCURVE SMOOTH",
"753 390 OFFCURVE",
"796 336 OFFCURVE",
"796 279 QCURVE SMOOTH",
"796 0 LINE",
"986 0 LINE",
"986 310 LINE SMOOTH",
"986 431 OFFCURVE",
"867 551 OFFCURVE",
"767 551 QCURVE",
"767 551 LINE"
);
}
);
userData = {
assembly = "PUSHB[ ]	/* 7 values pushed */\01230 24 2 1 5 1 74 \012MPPEM[ ]	/* MeasurePixelPerEm */\012PUSHB[ ]	/* 1 value pushed */\01227 \012LT[ ]	/* LessThan */\012IF[ ]	/* If */\012NPUSHB[ ]	/* 22 values pushed */\0123 1 1 1 5 95 8 7 6 3 5 5 69 75 4 2 2 0 0 67 0 76 \012ELSE[ ]	/* Else */\012NPUSHB[ ]	/* 26 values pushed */\0120 5 5 69 75 3 1 1 1 6 95 8 7 2 6 6 75 75 4 2 2 0 0 67 0 76 \012EIF[ ]	/* EndIf */\012NPUSHB[ ]	/* 16 values pushed */\0120 0 0 33 0 32 35 17 19 34 19 35 19 9 10 27 \012CALL[ ]	/* CallFunction */";
};
width = 1045;
}
);
leftKerningGroup = i;
note = m;
rightKerningGroup = a;
unicode = 006D;
},
{
glyphname = n;
layers = (
{
layerId = "4A38D2CF-722B-4995-83FB-3A8ED46F73E6";
paths = (
{
closed = 1;
nodes = (
"362 551 OFFCURVE",
"274 516 OFFCURVE",
"242 483 QCURVE",
"242 542 LINE",
"61 542 LINE",
"61 0 LINE",
"251 0 LINE",
"251 262 LINE SMOOTH",
"251 326 OFFCURVE",
"310 390 OFFCURVE",
"359 390 QCURVE SMOOTH",
"448 390 OFFCURVE",
"448 279 QCURVE SMOOTH",
"448 0 LINE",
"638 0 LINE",
"638 310 LINE SMOOTH",
"638 431 OFFCURVE",
"515 551 OFFCURVE",
"414 551 QCURVE",
"414 551 LINE"
);
}
);
userData = {
assembly = "PUSHB[ ]	/* 6 values pushed */\01215 1 1 3 1 74 \012MPPEM[ ]	/* MeasurePixelPerEm */\012PUSHB[ ]	/* 1 value pushed */\01227 \012LT[ ]	/* LessThan */\012IF[ ]	/* If */\012NPUSHB[ ]	/* 19 values pushed */\0120 1 1 3 95 5 4 2 3 3 69 75 2 1 0 0 67 0 76 \012ELSE[ ]	/* Else */\012NPUSHB[ ]	/* 23 values pushed */\0120 3 3 69 75 0 1 1 4 95 5 1 4 4 75 75 2 1 0 0 67 0 76 \012EIF[ ]	/* EndIf */\012NPUSHB[ ]	/* 13 values pushed */\0120 0 0 18 0 17 17 19 34 19 6 10 24 \012CALL[ ]	/* CallFunction */";
};
width = 696;
}
);
leftKerningGroup = i;
note = n;
rightKerningGroup = a;
unicode = 006E;
},
{
glyphname = o;
layers = (
{
layerId = "4A38D2CF-722B-4995-83FB-3A8ED46F73E6";
paths = (
{
closed = 1;
nodes = (
"421 -9 OFFCURVE",
"561 63 OFFCURVE",
"639 191 OFFCURVE",
"639 272 QCURVE SMOOTH",
"639 353 OFFCURVE",
"561 480 OFFCURVE",
"421 551 OFFCURVE",
"333 551 QCURVE SMOOTH",
"245 551 OFFCURVE",
"106 480 OFFCURVE",
"27 352 OFFCURVE",
"27 272 QCURVE SMOOTH",
"27 191 OFFCURVE",
"106 63 OFFCURVE",
"246 -9 OFFCURVE",
"333 -9 QCURVE",
"333 -9 LINE"
);
},
{
closed = 1;
nodes = (
"283 142 OFFCURVE",
"219 211 OFFCURVE",
"219 272 QCURVE SMOOTH",
"219 332 OFFCURVE",
"283 400 OFFCURVE",
"333 400 QCURVE SMOOTH",
"383 400 OFFCURVE",
"447 332 OFFCURVE",
"447 272 QCURVE SMOOTH",
"447 211 OFFCURVE",
"383 142 OFFCURVE",
"333 142 QCURVE",
"333 142 LINE"
);
}
);
userData = {
assembly = "NPUSHB[ ]	/* 41 values pushed */\0120 2 2 0 95 0 0 0 75 75 5 1 3 3 1 95 4 1 1 1 76 1 76 16 16 0 0 16 27 16 26 22 20 0 15 0 14 38 6 10 21 \012CALL[ ]	/* CallFunction */";
};
width = 666;
}
);
leftKerningGroup = c;
note = o;
rightKerningGroup = b;
unicode = 006F;
},
{
glyphname = p;
layers = (
{
layerId = "4A38D2CF-722B-4995-83FB-3A8ED46F73E6";
paths = (
{
closed = 1;
nodes = (
"295 551 OFFCURVE",
"242 488 QCURVE",
"242 542 LINE",
"61 542 LINE",
"61 -194 LINE",
"251 -194 LINE",
"251 48 LINE",
"307 -9 OFFCURVE",
"402 -9 QCURVE SMOOTH",
"476 -9 OFFCURVE",
"597 60 OFFCURVE",
"668 187 OFFCURVE",
"668 271 QCURVE SMOOTH",
"668 355 OFFCURVE",
"597 482 OFFCURVE",
"476 551 OFFCURVE",
"402 551 QCURVE",
"402 551 LINE"
);
},
{
closed = 1;
nodes = (
"312 142 OFFCURVE",
"248 211 OFFCURVE",
"248 271 QCURVE SMOOTH",
"248 331 OFFCURVE",
"312 400 OFFCURVE",
"362 400 QCURVE SMOOTH",
"412 400 OFFCURVE",
"476 331 OFFCURVE",
"476 271 QCURVE SMOOTH",
"476 211 OFFCURVE",
"412 142 OFFCURVE",
"362 142 QCURVE",
"362 142 LINE"
);
}
);
userData = {
assembly = "NPUSHB[ ]	/* 10 values pushed */\01214 1 4 2 9 1 0 5 2 74 \012MPPEM[ ]	/* MeasurePixelPerEm */\012PUSHB[ ]	/* 1 value pushed */\01227 \012LT[ ]	/* LessThan */\012IF[ ]	/* If */\012NPUSHB[ ]	/* 29 values pushed */\0120 4 4 2 95 6 3 2 2 2 69 75 7 1 5 5 0 95 0 0 0 76 75 0 1 1 71 1 76 \012ELSE[ ]	/* Else */\012NPUSHB[ ]	/* 33 values pushed */\0120 2 2 69 75 0 4 4 3 95 6 1 3 3 75 75 7 1 5 5 0 95 0 0 0 76 75 0 1 1 71 1 76 \012EIF[ ]	/* EndIf */\012NPUSHB[ ]	/* 20 values pushed */\01217 17 0 0 17 28 17 27 23 21 0 16 0 15 17 18 38 8 10 23 \012CALL[ ]	/* CallFunction */";
};
width = 695;
}
);
leftKerningGroup = i;
note = p;
rightKerningGroup = b;
unicode = 0070;
},
{
glyphname = q;
layers = (
{
layerId = "4A38D2CF-722B-4995-83FB-3A8ED46F73E6";
paths = (
{
closed = 1;
nodes = (
"453 542 LINE",
"453 488 LINE",
"400 551 OFFCURVE",
"293 551 QCURVE SMOOTH",
"219 551 OFFCURVE",
"98 482 OFFCURVE",
"27 355 OFFCURVE",
"27 271 QCURVE SMOOTH",
"27 187 OFFCURVE",
"98 60 OFFCURVE",
"219 -9 OFFCURVE",
"293 -9 QCURVE SMOOTH",
"389 -9 OFFCURVE",
"444 48 QCURVE",
"444 -194 LINE",
"634 -194 LINE",
"634 542 LINE",
"634 542 LINE"
);
},
{
closed = 1;
nodes = (
"283 142 OFFCURVE",
"219 211 OFFCURVE",
"219 271 QCURVE SMOOTH",
"219 331 OFFCURVE",
"283 400 OFFCURVE",
"333 400 QCURVE SMOOTH",
"383 400 OFFCURVE",
"447 331 OFFCURVE",
"447 271 QCURVE SMOOTH",
"447 211 OFFCURVE",
"383 142 OFFCURVE",
"333 142 QCURVE",
"333 142 LINE"
);
}
);
userData = {
assembly = "MPPEM[ ]	/* MeasurePixelPerEm */\012PUSHB[ ]	/* 1 value pushed */\01227 \012LT[ ]	/* LessThan */\012IF[ ]	/* If */\012NPUSHB[ ]	/* 10 values pushed */\01215 1 4 2 3 1 1 5 2 74 \012ELSE[ ]	/* Else */\012NPUSHB[ ]	/* 10 values pushed */\01215 1 4 3 3 1 1 5 2 74 \012EIF[ ]	/* EndIf */\012MPPEM[ ]	/* MeasurePixelPerEm */\012PUSHB[ ]	/* 1 value pushed */\01227 \012LT[ ]	/* LessThan */\012IF[ ]	/* If */\012NPUSHB[ ]	/* 29 values pushed */\0120 4 4 2 95 6 3 2 2 2 75 75 7 1 5 5 1 95 0 1 1 76 75 0 0 0 71 0 76 \012ELSE[ ]	/* Else */\012NPUSHB[ ]	/* 33 values pushed */\0126 1 3 3 69 75 0 4 4 2 95 0 2 2 75 75 7 1 5 5 1 95 0 1 1 76 75 0 0 0 71 0 76 \012EIF[ ]	/* EndIf */\012NPUSHB[ ]	/* 20 values pushed */\01217 17 0 0 17 28 17 27 23 21 0 16 0 16 38 34 17 8 10 23 \012CALL[ ]	/* CallFunction */";
};
width = 695;
}
);
leftKerningGroup = c;
note = q;
rightKerningGroup = Lj;
unicode = 0071;
},
{
glyphname = r;
layers = (
{
layerId = "4A38D2CF-722B-4995-83FB-3A8ED46F73E6";
paths = (
{
closed = 1;
nodes = (
"242 542 LINE",
"61 542 LINE",
"61 0 LINE",
"251 0 LINE",
"251 249 LINE SMOOTH",
"251 317 OFFCURVE",
"320 383 OFFCURVE",
"381 383 QCURVE SMOOTH",
"398 383 OFFCURVE",
"424 380 QCURVE",
"424 551 LINE",
"364 551 OFFCURVE",
"271 514 OFFCURVE",
"242 477 QCURVE",
"242 477 LINE"
);
}
);
userData = {
assembly = "MPPEM[ ]	/* MeasurePixelPerEm */\012PUSHB[ ]	/* 1 value pushed */\01227 \012LT[ ]	/* LessThan */\012IF[ ]	/* If */\012NPUSHB[ ]	/* 10 values pushed */\01213 1 1 0 3 1 2 1 2 74 \012ELSE[ ]	/* Else */\012NPUSHB[ ]	/* 10 values pushed */\01213 1 1 3 3 1 2 1 2 74 \012EIF[ ]	/* EndIf */\012MPPEM[ ]	/* MeasurePixelPerEm */\012PUSHB[ ]	/* 1 value pushed */\01227 \012LT[ ]	/* LessThan */\012IF[ ]	/* If */\012NPUSHB[ ]	/* 17 values pushed */\0120 1 1 0 95 3 1 0 0 75 75 0 2 2 67 2 76 \012ELSE[ ]	/* Else */\012NPUSHB[ ]	/* 21 values pushed */\0120 3 3 69 75 0 1 1 0 95 0 0 0 75 75 0 2 2 67 2 76 \012EIF[ ]	/* EndIf */\012PUSHB[ ]	/* 7 values pushed */\01217 19 34 17 4 10 24 \012CALL[ ]	/* CallFunction */";
};
width = 443;
}
);
leftKerningGroup = i;
note = r;
rightKerningGroup = r;
unicode = 0072;
},
{
glyphname = s;
layers = (
{
layerId = "4A38D2CF-722B-4995-83FB-3A8ED46F73E6";
paths = (
{
closed = 1;
nodes = (
"343 -9 OFFCURVE",
"464 37 OFFCURVE",
"526 118 OFFCURVE",
"526 169 QCURVE SMOOTH",
"526 231 OFFCURVE",
"461 300 OFFCURVE",
"373 326 OFFCURVE",
"306 336 QCURVE SMOOTH",
"253 344 OFFCURVE",
"207 359 OFFCURVE",
"207 378 QCURVE SMOOTH",
"207 395 OFFCURVE",
"249 416 OFFCURVE",
"294 416 QCURVE SMOOTH",
"378 416 OFFCURVE",
"450 376 QCURVE",
"507 505 LINE",
"468 527 OFFCURVE",
"352 551 OFFCURVE",
"293 551 QCURVE SMOOTH",
"210 551 OFFCURVE",
"91 504 OFFCURVE",
"29 423 OFFCURVE",
"29 371 QCURVE SMOOTH",
"29 308 OFFCURVE",
"95 238 OFFCURVE",
"186 212 OFFCURVE",
"251 204 QCURVE SMOOTH",
"302 197 OFFCURVE",
"349 182 OFFCURVE",
"349 164 QCURVE SMOOTH",
"349 146 OFFCURVE",
"310 127 OFFCURVE",
"264 127 QCURVE SMOOTH",
"214 127 OFFCURVE",
"112 154 OFFCURVE",
"75 177 QCURVE",
"18 47 LINE",
"58 22 OFFCURVE",
"190 -9 OFFCURVE",
"258 -9 QCURVE",
"258 -9 LINE"
);
}
);
userData = {
assembly = "NPUSHB[ ]	/* 49 values pushed */\01223 1 2 1 24 3 2 0 2 2 1 3 0 3 74 0 2 2 1 95 0 1 1 75 75 0 0 0 3 95 4 1 3 3 76 3 76 0 0 0 40 0 39 36 44 37 5 10 23 \012CALL[ ]	/* CallFunction */";
};
width = 547;
}
);
leftKerningGroup = s;
note = s;
rightKerningGroup = s;
unicode = 0073;
},
{
glyphname = t;
layers = (
{
layerId = "4A38D2CF-722B-4995-83FB-3A8ED46F73E6";
paths = (
{
closed = 1;
nodes = (
"388 155 LINE",
"363 138 OFFCURVE",
"330 138 QCURVE SMOOTH",
"304 138 OFFCURVE",
"273 171 OFFCURVE",
"273 200 QCURVE SMOOTH",
"273 380 LINE",
"397 380 LINE",
"397 522 LINE",
"273 522 LINE",
"273 663 LINE",
"83 663 LINE",
"83 522 LINE",
"4 522 LINE",
"4 380 LINE",
"83 380 LINE",
"83 198 LINE SMOOTH",
"83 95 OFFCURVE",
"197 -9 OFFCURVE",
"303 -9 QCURVE SMOOTH",
"342 -9 OFFCURVE",
"411 7 OFFCURVE",
"435 22 QCURVE",
"435 22 LINE"
);
}
);
userData = {
assembly = "PUSHB[ ]	/* 6 values pushed */\01222 1 6 1 1 74 \012MPPEM[ ]	/* MeasurePixelPerEm */\012PUSHB[ ]	/* 1 value pushed */\01225 \012LT[ ]	/* LessThan */\012IF[ ]	/* If */\012NPUSHB[ ]	/* 28 values pushed */\0120 3 2 3 131 5 1 1 1 2 93 4 1 2 2 69 75 0 6 6 0 96 0 0 0 76 0 76 \012ELSE[ ]	/* Else */\012NPUSHB[ ]	/* 26 values pushed */\0120 3 2 3 131 4 1 2 5 1 1 6 2 1 101 0 6 6 0 96 0 0 0 76 0 76 \012EIF[ ]	/* EndIf */\012NPUSHB[ ]	/* 10 values pushed */\01235 17 17 17 17 19 34 7 10 27 \012CALL[ ]	/* CallFunction */";
};
width = 447;
}
);
leftKerningGroup = t;
note = t;
rightKerningGroup = t;
unicode = 0074;
},
{
glyphname = u;
layers = (
{
layerId = "4A38D2CF-722B-4995-83FB-3A8ED46F73E6";
paths = (
{
closed = 1;
nodes = (
"441 542 LINE",
"441 281 LINE SMOOTH",
"441 216 OFFCURVE",
"384 153 OFFCURVE",
"339 153 QCURVE SMOOTH",
"295 153 OFFCURVE",
"249 209 OFFCURVE",
"249 270 QCURVE SMOOTH",
"249 542 LINE",
"59 542 LINE",
"59 239 LINE SMOOTH",
"59 115 OFFCURVE",
"184 -9 OFFCURVE",
"289 -9 QCURVE SMOOTH",
"336 -9 OFFCURVE",
"420 25 OFFCURVE",
"450 58 QCURVE",
"450 0 LINE",
"631 0 LINE",
"631 542 LINE",
"631 542 LINE"
);
}
);
userData = {
assembly = "PUSHB[ ]	/* 6 values pushed */\0123 1 0 3 1 74 \012MPPEM[ ]	/* MeasurePixelPerEm */\012PUSHB[ ]	/* 1 value pushed */\01227 \012LT[ ]	/* LessThan */\012IF[ ]	/* If */\012NPUSHB[ ]	/* 19 values pushed */\0125 4 2 2 2 69 75 0 3 3 0 96 1 1 0 0 67 0 76 \012ELSE[ ]	/* Else */\012NPUSHB[ ]	/* 23 values pushed */\0125 4 2 2 2 69 75 0 0 0 67 75 0 3 3 1 96 0 1 1 76 1 76 \012EIF[ ]	/* EndIf */\012NPUSHB[ ]	/* 13 values pushed */\0120 0 0 19 0 19 35 19 35 17 6 10 24 \012CALL[ ]	/* CallFunction */";
};
width = 692;
}
);
leftKerningGroup = u;
note = u;
rightKerningGroup = Lj;
unicode = 0075;
},
{
glyphname = v;
layers = (
{
layerId = "4A38D2CF-722B-4995-83FB-3A8ED46F73E6";
paths = (
{
closed = 1;
nodes = (
"451 542 LINE",
"314 211 LINE",
"184 542 LINE",
"-11 542 LINE",
"212 0 LINE",
"408 0 LINE",
"632 542 LINE",
"632 542 LINE"
);
}
);
userData = {
assembly = "NPUSHB[ ]	/* 30 values pushed */\0125 1 0 1 1 74 3 2 2 1 1 69 75 0 0 0 67 0 76 0 0 0 6 0 6 17 17 4 10 22 \012CALL[ ]	/* CallFunction */";
};
width = 620;
}
);
leftKerningGroup = v;
note = v;
rightKerningGroup = v;
unicode = 0076;
},
{
glyphname = w;
layers = (
{
layerId = "4A38D2CF-722B-4995-83FB-3A8ED46F73E6";
paths = (
{
closed = 1;
nodes = (
"792 542 LINE",
"677 211 LINE",
"565 542 LINE",
"403 542 LINE",
"288 214 LINE",
"177 542 LINE",
"-3 542 LINE",
"190 0 LINE",
"374 0 LINE",
"480 295 LINE",
"582 0 LINE",
"766 0 LINE",
"959 542 LINE",
"959 542 LINE"
);
}
);
userData = {
assembly = "NPUSHB[ ]	/* 36 values pushed */\01211 8 3 3 0 2 1 74 5 4 3 3 2 2 69 75 1 1 0 0 67 0 76 0 0 0 12 0 12 18 17 18 17 6 10 24 \012CALL[ ]	/* CallFunction */";
};
width = 956;
}
);
leftKerningGroup = v;
note = w;
rightKerningGroup = v;
unicode = 0077;
},
{
glyphname = x;
layers = (
{
layerId = "4A38D2CF-722B-4995-83FB-3A8ED46F73E6";
paths = (
{
closed = 1;
nodes = (
"622 0 LINE",
"415 278 LINE",
"615 542 LINE",
"414 542 LINE",
"314 405 LINE",
"218 542 LINE",
"4 542 LINE",
"204 271 LINE",
"-2 0 LINE",
"204 0 LINE",
"308 142 LINE",
"405 0 LINE",
"405 0 LINE"
);
}
);
userData = {
assembly = "NPUSHB[ ]	/* 35 values pushed */\01210 7 4 1 4 0 1 1 74 2 1 1 1 69 75 4 3 2 0 0 67 0 76 0 0 0 11 0 11 18 18 18 5 10 23 \012CALL[ ]	/* CallFunction */";
};
width = 619;
}
);
leftKerningGroup = x;
note = x;
rightKerningGroup = x;
unicode = 0078;
},
{
glyphname = y;
layers = (
{
layerId = "4A38D2CF-722B-4995-83FB-3A8ED46F73E6";
paths = (
{
closed = 1;
nodes = (
"451 542 LINE",
"317 211 LINE",
"184 542 LINE",
"-11 542 LINE",
"221 -7 LINE",
"209 -31 OFFCURVE",
"174 -53 OFFCURVE",
"147 -53 QCURVE SMOOTH",
"124 -53 OFFCURVE",
"79 -36 OFFCURVE",
"63 -21 QCURVE",
"-3 -154 LINE",
"24 -176 OFFCURVE",
"111 -203 OFFCURVE",
"154 -203 QCURVE SMOOTH",
"239 -203 OFFCURVE",
"357 -122 OFFCURVE",
"398 -22 QCURVE SMOOTH",
"632 542 LINE",
"632 542 LINE"
);
}
);
userData = {
assembly = "NPUSHB[ ]	/* 42 values pushed */\01217 14 8 3 1 2 7 1 0 1 2 74 4 3 2 2 2 69 75 0 1 1 0 96 0 0 0 77 0 76 0 0 0 18 0 18 19 37 35 5 10 23 \012CALL[ ]	/* CallFunction */";
};
width = 620;
}
);
leftKerningGroup = v;
note = y;
rightKerningGroup = v;
unicode = 0079;
},
{
glyphname = z;
layers = (
{
layerId = "4A38D2CF-722B-4995-83FB-3A8ED46F73E6";
paths = (
{
closed = 1;
nodes = (
"272 142 LINE",
"523 431 LINE",
"523 542 LINE",
"40 542 LINE",
"40 401 LINE",
"284 401 LINE",
"33 112 LINE",
"33 0 LINE",
"533 0 LINE",
"533 142 LINE",
"533 142 LINE"
);
}
);
userData = {
assembly = "NPUSHB[ ]	/* 44 values pushed */\0128 1 1 2 3 1 0 3 2 74 0 1 1 2 93 0 2 2 69 75 4 1 3 3 0 93 0 0 0 67 0 76 0 0 0 9 0 9 17 18 17 5 10 23 \012CALL[ ]	/* CallFunction */";
};
width = 556;
}
);
leftKerningGroup = z;
note = z;
rightKerningGroup = Dzcaron;
unicode = 007A;
},
{
glyphname = period;
layers = (
{
layerId = "4A38D2CF-722B-4995-83FB-3A8ED46F73E6";
paths = (
{
closed = 1;
nodes = (
"190 -9 OFFCURVE",
"255 55 OFFCURVE",
"255 104 QCURVE SMOOTH",
"255 154 OFFCURVE",
"191 216 OFFCURVE",
"141 216 QCURVE SMOOTH",
"92 216 OFFCURVE",
"27 154 OFFCURVE",
"27 104 QCURVE SMOOTH",
"27 55 OFFCURVE",
"93 -9 OFFCURVE",
"141 -9 QCURVE",
"141 -9 LINE"
);
}
);
userData = {
assembly = "NPUSHB[ ]	/* 22 values pushed */\0120 0 0 1 95 2 1 1 1 76 1 76 0 0 0 11 0 10 36 3 10 21 \012CALL[ ]	/* CallFunction */";
};
width = 283;
}
);
leftKerningGroup = comma;
note = period;
rightKerningGroup = comma;
unicode = 002E;
},
{
glyphname = comma;
layers = (
{
layerId = "4A38D2CF-722B-4995-83FB-3A8ED46F73E6";
paths = (
{
closed = 1;
nodes = (
"92 216 OFFCURVE",
"28 154 OFFCURVE",
"28 104 QCURVE SMOOTH",
"28 70 OFFCURVE",
"59 19 OFFCURVE",
"87 6 QCURVE",
"40 -157 LINE",
"159 -157 LINE",
"222 -11 LINE SMOOTH",
"243 35 OFFCURVE",
"255 81 OFFCURVE",
"255 104 QCURVE SMOOTH",
"255 154 OFFCURVE",
"191 216 OFFCURVE",
"142 216 QCURVE",
"142 216 LINE"
);
}
);
userData = {
assembly = "NPUSHB[ ]	/* 34 values pushed */\0128 1 0 1 1 74 2 1 1 0 0 1 87 2 1 1 1 0 93 0 0 1 0 77 0 0 0 14 0 13 22 3 10 21 \012CALL[ ]	/* CallFunction */";
};
width = 283;
}
);
leftKerningGroup = comma;
note = comma;
rightKerningGroup = comma;
unicode = 002C;
},
{
glyphname = exclam;
layers = (
{
layerId = "4A38D2CF-722B-4995-83FB-3A8ED46F73E6";
paths = (
{
closed = 1;
nodes = (
"75 255 LINE",
"226 255 LINE",
"264 700 LINE",
"38 700 LINE",
"38 700 LINE"
);
},
{
closed = 1;
nodes = (
"200 -9 OFFCURVE",
"264 52 OFFCURVE",
"264 96 QCURVE SMOOTH",
"264 141 OFFCURVE",
"201 199 OFFCURVE",
"151 199 QCURVE SMOOTH",
"101 199 OFFCURVE",
"37 141 OFFCURVE",
"37 96 QCURVE SMOOTH",
"37 52 OFFCURVE",
"101 -9 OFFCURVE",
"151 -9 QCURVE",
"151 -9 LINE"
);
}
);
userData = {
assembly = "NPUSHB[ ]	/* 34 values pushed */\0120 1 1 0 93 0 0 0 66 75 0 2 2 3 95 4 1 3 3 76 3 76 4 4 4 15 4 14 37 17 16 5 10 23 \012CALL[ ]	/* CallFunction */";
};
width = 301;
}
);
leftKerningGroup = exclam;
note = exclam;
rightKerningGroup = exclam;
unicode = 0021;
},
{
glyphname = question;
layers = (
{
layerId = "4A38D2CF-722B-4995-83FB-3A8ED46F73E6";
paths = (
{
closed = 1;
nodes = (
"390 255 LINE",
"390 282 OFFCURVE",
"422 323 OFFCURVE",
"456 352 QCURVE SMOOTH",
"487 379 OFFCURVE",
"526 422 OFFCURVE",
"554 485 OFFCURVE",
"554 526 QCURVE SMOOTH",
"554 615 OFFCURVE",
"409 714 OFFCURVE",
"290 714 QCURVE SMOOTH",
"184 714 OFFCURVE",
"34 636 OFFCURVE",
"-7 566 QCURVE",
"142 486 LINE",
"162 520 OFFCURVE",
"227 558 OFFCURVE",
"267 558 QCURVE SMOOTH",
"306 558 OFFCURVE",
"355 523 OFFCURVE",
"355 494 QCURVE SMOOTH",
"355 473 OFFCURVE",
"327 436 OFFCURVE",
"298 409 QCURVE SMOOTH",
"256 370 OFFCURVE",
"212 305 OFFCURVE",
"212 255 QCURVE",
"212 255 LINE"
);
},
{
closed = 1;
nodes = (
"351 -9 OFFCURVE",
"415 52 OFFCURVE",
"415 96 QCURVE SMOOTH",
"415 141 OFFCURVE",
"351 199 OFFCURVE",
"301 199 QCURVE SMOOTH",
"251 199 OFFCURVE",
"188 141 OFFCURVE",
"188 96 QCURVE SMOOTH",
"188 52 OFFCURVE",
"252 -9 OFFCURVE",
"301 -9 QCURVE",
"301 -9 LINE"
);
}
);
userData = {
assembly = "NPUSHB[ ]	/* 53 values pushed */\01212 1 0 1 11 1 2 0 2 74 0 2 0 3 0 2 3 126 0 0 0 1 95 0 1 1 72 75 0 3 3 4 95 5 1 4 4 76 4 76 27 27 27 38 27 37 37 25 37 39 6 10 24 \012CALL[ ]	/* CallFunction */";
};
width = 597;
}
);
leftKerningGroup = question;
note = question;
rightKerningGroup = question;
unicode = 003F;
},
{
glyphname = bullet;
layers = (
{
layerId = "4A38D2CF-722B-4995-83FB-3A8ED46F73E6";
paths = (
{
closed = 1;
nodes = (
"231 137 OFFCURVE",
"297 175 OFFCURVE",
"336 242 OFFCURVE",
"336 283 QCURVE SMOOTH",
"336 324 OFFCURVE",
"297 390 OFFCURVE",
"231 427 OFFCURVE",
"191 427 QCURVE SMOOTH",
"151 427 OFFCURVE",
"85 390 OFFCURVE",
"47 324 OFFCURVE",
"47 283 QCURVE SMOOTH",
"47 242 OFFCURVE",
"85 175 OFFCURVE",
"151 137 OFFCURVE",
"191 137 QCURVE",
"191 137 LINE"
);
}
);
userData = {
assembly = "NPUSHB[ ]	/* 27 values pushed */\0120 0 1 1 0 87 0 0 0 1 95 2 1 1 0 1 79 0 0 0 15 0 14 38 3 10 21 \012CALL[ ]	/* CallFunction */";
};
width = 383;
}
);
leftKerningGroup = periodcentered;
note = bullet;
rightKerningGroup = periodcentered;
unicode = 2022;
},
{
glyphname = asterisk;
layers = (
{
layerId = "4A38D2CF-722B-4995-83FB-3A8ED46F73E6";
paths = (
{
closed = 1;
nodes = (
"443 594 LINE",
"385 690 LINE",
"280 626 LINE",
"283 742 LINE",
"169 742 LINE",
"172 626 LINE",
"67 690 LINE",
"10 594 LINE",
"112 538 LINE",
"10 483 LINE",
"67 387 LINE",
"172 450 LINE",
"169 335 LINE",
"283 335 LINE",
"280 450 LINE",
"385 387 LINE",
"443 483 LINE",
"341 538 LINE",
"341 538 LINE"
);
}
);
userData = {
assembly = "NPUSHB[ ]	/* 18 values pushed */\01217 16 15 12 11 10 9 8 7 6 3 2 1 13 0 1 1 74 \012MPPEM[ ]	/* MeasurePixelPerEm */\012PUSHB[ ]	/* 1 value pushed */\01212 \012LT[ ]	/* LessThan */\012IF[ ]	/* If */\012NPUSHB[ ]	/* 11 values pushed */\0120 0 0 1 93 0 1 1 68 0 76 \012ELSE[ ]	/* Else */\012NPUSHB[ ]	/* 16 values pushed */\0120 1 0 0 1 85 0 1 1 0 93 0 0 1 0 77 \012EIF[ ]	/* EndIf */\012PUSHB[ ]	/* 5 values pushed */\01224 20 2 10 22 \012CALL[ ]	/* CallFunction */";
};
width = 453;
}
);
leftKerningGroup = ordfeminine;
note = asterisk;
rightKerningGroup = ordfeminine;
unicode = 002A;
},
{
glyphname = numbersign;
layers = (
{
layerId = "4A38D2CF-722B-4995-83FB-3A8ED46F73E6";
paths = (
{
closed = 1;
nodes = (
"713 422 LINE",
"713 551 LINE",
"587 551 LINE",
"606 700 LINE",
"470 700 LINE",
"451 551 LINE",
"328 551 LINE",
"347 700 LINE",
"211 700 LINE",
"192 551 LINE",
"50 551 LINE",
"50 422 LINE",
"176 422 LINE",
"159 278 LINE",
"17 278 LINE",
"17 149 LINE",
"143 149 LINE",
"124 0 LINE",
"260 0 LINE",
"279 149 LINE",
"402 149 LINE",
"383 0 LINE",
"519 0 LINE",
"538 149 LINE",
"679 149 LINE",
"679 278 LINE",
"554 278 LINE",
"571 422 LINE",
"571 422 LINE"
);
},
{
closed = 1;
nodes = (
"418 278 LINE",
"295 278 LINE",
"312 422 LINE",
"435 422 LINE",
"435 422 LINE"
);
}
);
userData = {
assembly = "NPUSHB[ ]	/* 70 values pushed */\01215 6 2 0 5 3 2 1 2 0 1 101 11 1 9 9 66 75 14 16 13 3 7 7 8 93 12 10 2 8 8 69 75 4 1 2 2 67 2 76 0 0 31 30 29 28 0 27 0 27 26 25 24 23 22 21 20 19 17 17 17 17 17 17 17 17 17 17 10 29 \012CALL[ ]	/* CallFunction */";
};
width = 730;
}
);
note = numbersign;
unicode = 0023;
},
{
glyphname = slash;
layers = (
{
layerId = "4A38D2CF-722B-4995-83FB-3A8ED46F73E6";
paths = (
{
closed = 1;
nodes = (
"-37 -100 LINE",
"132 -100 LINE",
"462 842 LINE",
"293 842 LINE",
"293 842 LINE"
);
}
);
userData = {
assembly = "NPUSHB[ ]	/* 14 values pushed */\0120 0 1 0 131 0 1 1 116 17 16 2 10 22 \012CALL[ ]	/* CallFunction */";
};
width = 415;
}
);
leftKerningGroup = slash;
note = slash;
rightKerningGroup = slash;
unicode = 002F;
},
{
glyphname = backslash;
layers = (
{
layerId = "4A38D2CF-722B-4995-83FB-3A8ED46F73E6";
paths = (
{
closed = 1;
nodes = (
"452 -100 LINE",
"122 842 LINE",
"-47 842 LINE",
"283 -100 LINE",
"283 -100 LINE"
);
}
);
userData = {
assembly = "NPUSHB[ ]	/* 20 values pushed */\0120 0 1 0 131 2 1 1 1 116 0 0 0 3 0 3 17 3 10 21 \012CALL[ ]	/* CallFunction */";
};
width = 415;
}
);
leftKerningGroup = backslash;
note = backslash;
rightKerningGroup = backslash;
unicode = 005C;
},
{
glyphname = parenleft;
layers = (
{
layerId = "4A38D2CF-722B-4995-83FB-3A8ED46F73E6";
paths = (
{
closed = 1;
nodes = (
"371 -194 LINE",
"306 -79 OFFCURVE",
"246 148 OFFCURVE",
"246 274 QCURVE SMOOTH",
"246 400 OFFCURVE",
"306 627 OFFCURVE",
"371 742 QCURVE",
"189 742 LINE",
"127 652 OFFCURVE",
"60 411 OFFCURVE",
"60 274 QCURVE SMOOTH",
"60 137 OFFCURVE",
"127 -104 OFFCURVE",
"189 -194 QCURVE",
"189 -194 LINE"
);
}
);
userData = {
assembly = "MPPEM[ ]	/* MeasurePixelPerEm */\012PUSHB[ ]	/* 1 value pushed */\01212 \012LT[ ]	/* LessThan */\012IF[ ]	/* If */\012NPUSHB[ ]	/* 11 values pushed */\0120 0 0 68 75 0 1 1 71 1 76 \012ELSE[ ]	/* Else */\012NPUSHB[ ]	/* 11 values pushed */\0120 0 0 1 93 0 1 1 71 1 76 \012EIF[ ]	/* EndIf */\012PUSHB[ ]	/* 5 values pushed */\01222 21 2 10 22 \012CALL[ ]	/* CallFunction */";
};
width = 369;
}
);
leftKerningGroup = parenleft;
note = parenleft;
rightKerningGroup = parenleft;
unicode = 0028;
},
{
glyphname = parenright;
layers = (
{
layerId = "4A38D2CF-722B-4995-83FB-3A8ED46F73E6";
paths = (
{
closed = 1;
nodes = (
"180 -194 LINE",
"242 -104 OFFCURVE",
"309 137 OFFCURVE",
"309 274 QCURVE SMOOTH",
"309 411 OFFCURVE",
"242 652 OFFCURVE",
"180 742 QCURVE",
"-2 742 LINE",
"63 627 OFFCURVE",
"123 400 OFFCURVE",
"123 274 QCURVE SMOOTH",
"123 148 OFFCURVE",
"63 -79 OFFCURVE",
"-2 -194 QCURVE",
"-2 -194 LINE"
);
}
);
userData = {
assembly = "MPPEM[ ]	/* MeasurePixelPerEm */\012PUSHB[ ]	/* 1 value pushed */\01212 \012LT[ ]	/* LessThan */\012IF[ ]	/* If */\012NPUSHB[ ]	/* 12 values pushed */\0120 0 0 68 75 2 1 1 1 71 1 76 \012ELSE[ ]	/* Else */\012NPUSHB[ ]	/* 12 values pushed */\0120 0 0 1 93 2 1 1 1 71 1 76 \012EIF[ ]	/* EndIf */\012NPUSHB[ ]	/* 10 values pushed */\0120 0 0 13 0 13 22 3 10 21 \012CALL[ ]	/* CallFunction */";
};
width = 369;
}
);
leftKerningGroup = parenright;
note = parenright;
rightKerningGroup = parenright;
unicode = 0029;
},
{
glyphname = braceleft;
layers = (
{
layerId = "4A38D2CF-722B-4995-83FB-3A8ED46F73E6";
paths = (
{
closed = 1;
nodes = (
"315 525 LINE SMOOTH",
"315 560 OFFCURVE",
"351 597 OFFCURVE",
"387 597 QCURVE SMOOTH",
"401 597 LINE",
"401 742 LINE",
"336 742 LINE SMOOTH",
"232 742 OFFCURVE",
"125 641 OFFCURVE",
"125 547 QCURVE SMOOTH",
"125 392 LINE SMOOTH",
"125 369 OFFCURVE",
"102 347 OFFCURVE",
"82 347 QCURVE SMOOTH",
"48 347 LINE",
"48 201 LINE",
"82 201 LINE SMOOTH",
"102 201 OFFCURVE",
"125 179 OFFCURVE",
"125 156 QCURVE SMOOTH",
"125 1 LINE SMOOTH",
"125 -93 OFFCURVE",
"232 -194 OFFCURVE",
"336 -194 QCURVE SMOOTH",
"401 -194 LINE",
"401 -49 LINE",
"387 -49 LINE SMOOTH",
"351 -49 OFFCURVE",
"315 -12 OFFCURVE",
"315 23 QCURVE SMOOTH",
"315 151 LINE SMOOTH",
"315 206 OFFCURVE",
"280 263 OFFCURVE",
"240 274 QCURVE",
"280 285 OFFCURVE",
"315 342 OFFCURVE",
"315 397 QCURVE",
"315 397 LINE"
);
}
);
userData = {
assembly = "PUSHB[ ]	/* 6 values pushed */\0122 1 2 3 1 74 \012MPPEM[ ]	/* MeasurePixelPerEm */\012PUSHB[ ]	/* 1 value pushed */\01212 \012LT[ ]	/* LessThan */\012IF[ ]	/* If */\012NPUSHB[ ]	/* 29 values pushed */\0120 3 0 2 0 3 2 103 0 5 5 4 95 0 4 4 68 75 0 0 0 1 95 0 1 1 71 1 76 \012ELSE[ ]	/* Else */\012NPUSHB[ ]	/* 27 values pushed */\0120 4 0 5 3 4 5 103 0 3 0 2 0 3 2 103 0 0 0 1 95 0 1 1 71 1 76 \012EIF[ ]	/* EndIf */\012NPUSHB[ ]	/* 9 values pushed */\01233 37 33 37 33 40 6 10 26 \012CALL[ ]	/* CallFunction */";
};
width = 414;
}
);
note = braceleft;
rightKerningGroup = braceleft;
unicode = 007B;
},
{
glyphname = braceright;
layers = (
{
layerId = "4A38D2CF-722B-4995-83FB-3A8ED46F73E6";
paths = (
{
closed = 1;
nodes = (
"332 347 LINE SMOOTH",
"312 347 OFFCURVE",
"289 369 OFFCURVE",
"289 392 QCURVE SMOOTH",
"289 547 LINE SMOOTH",
"289 641 OFFCURVE",
"182 742 OFFCURVE",
"78 742 QCURVE SMOOTH",
"12 742 LINE",
"12 597 LINE",
"27 597 LINE SMOOTH",
"63 597 OFFCURVE",
"99 560 OFFCURVE",
"99 525 QCURVE SMOOTH",
"99 397 LINE SMOOTH",
"99 342 OFFCURVE",
"134 285 OFFCURVE",
"174 274 QCURVE",
"134 263 OFFCURVE",
"99 206 OFFCURVE",
"99 151 QCURVE SMOOTH",
"99 23 LINE SMOOTH",
"99 -12 OFFCURVE",
"63 -49 OFFCURVE",
"27 -49 QCURVE SMOOTH",
"12 -49 LINE",
"12 -194 LINE",
"78 -194 LINE SMOOTH",
"182 -194 OFFCURVE",
"289 -93 OFFCURVE",
"289 1 QCURVE SMOOTH",
"289 156 LINE SMOOTH",
"289 179 OFFCURVE",
"312 201 OFFCURVE",
"332 201 QCURVE SMOOTH",
"365 201 LINE",
"365 347 LINE",
"365 347 LINE"
);
}
);
userData = {
assembly = "PUSHB[ ]	/* 6 values pushed */\01219 1 0 5 1 74 \012MPPEM[ ]	/* MeasurePixelPerEm */\012PUSHB[ ]	/* 1 value pushed */\01212 \012LT[ ]	/* LessThan */\012IF[ ]	/* If */\012NPUSHB[ ]	/* 30 values pushed */\0126 1 5 0 0 2 5 0 103 0 3 3 4 95 0 4 4 68 75 0 2 2 1 95 0 1 1 71 1 76 \012ELSE[ ]	/* Else */\012NPUSHB[ ]	/* 28 values pushed */\0120 4 0 3 5 4 3 103 6 1 5 0 0 2 5 0 103 0 2 2 1 95 0 1 1 71 1 76 \012EIF[ ]	/* EndIf */\012NPUSHB[ ]	/* 14 values pushed */\0120 0 0 36 0 35 33 44 33 37 33 7 10 25 \012CALL[ ]	/* CallFunction */";
};
width = 414;
}
);
leftKerningGroup = braceright;
note = braceright;
unicode = 007D;
},
{
glyphname = bracketleft;
layers = (
{
layerId = "4A38D2CF-722B-4995-83FB-3A8ED46F73E6";
paths = (
{
closed = 1;
nodes = (
"70 -194 LINE",
"376 -194 LINE",
"376 -49 LINE",
"260 -49 LINE",
"260 597 LINE",
"376 597 LINE",
"376 742 LINE",
"70 742 LINE",
"70 742 LINE"
);
}
);
userData = {
assembly = "MPPEM[ ]	/* MeasurePixelPerEm */\012PUSHB[ ]	/* 1 value pushed */\01212 \012LT[ ]	/* LessThan */\012IF[ ]	/* If */\012NPUSHB[ ]	/* 21 values pushed */\0120 1 1 0 93 0 0 0 68 75 0 2 2 3 93 0 3 3 71 3 76 \012ELSE[ ]	/* Else */\012NPUSHB[ ]	/* 19 values pushed */\0120 0 0 1 2 0 1 101 0 2 2 3 93 0 3 3 71 3 76 \012EIF[ ]	/* EndIf */\012PUSHB[ ]	/* 7 values pushed */\01217 17 17 16 4 10 24 \012CALL[ ]	/* CallFunction */";
};
width = 389;
}
);
leftKerningGroup = bracketleft;
note = bracketleft;
rightKerningGroup = braceleft;
unicode = 005B;
},
{
glyphname = bracketright;
layers = (
{
layerId = "4A38D2CF-722B-4995-83FB-3A8ED46F73E6";
paths = (
{
closed = 1;
nodes = (
"318 -194 LINE",
"318 742 LINE",
"12 742 LINE",
"12 597 LINE",
"128 597 LINE",
"128 -49 LINE",
"12 -49 LINE",
"12 -194 LINE",
"12 -194 LINE"
);
}
);
userData = {
assembly = "MPPEM[ ]	/* MeasurePixelPerEm */\012PUSHB[ ]	/* 1 value pushed */\01212 \012LT[ ]	/* LessThan */\012IF[ ]	/* If */\012NPUSHB[ ]	/* 22 values pushed */\0120 1 1 2 93 0 2 2 68 75 0 0 0 3 93 4 1 3 3 71 3 76 \012ELSE[ ]	/* Else */\012NPUSHB[ ]	/* 20 values pushed */\0120 2 0 1 0 2 1 101 0 0 0 3 93 4 1 3 3 71 3 76 \012EIF[ ]	/* EndIf */\012NPUSHB[ ]	/* 12 values pushed */\0120 0 0 7 0 7 17 17 17 5 10 23 \012CALL[ ]	/* CallFunction */";
};
width = 389;
}
);
leftKerningGroup = braceright;
note = bracketright;
rightKerningGroup = bracketright;
unicode = 005D;
},
{
glyphname = hyphen;
layers = (
{
layerId = "4A38D2CF-722B-4995-83FB-3A8ED46F73E6";
paths = (
{
closed = 1;
nodes = (
"48 212 LINE",
"340 212 LINE",
"340 358 LINE",
"48 358 LINE",
"48 358 LINE"
);
}
);
userData = {
assembly = "NPUSHB[ ]	/* 21 values pushed */\0120 0 1 1 0 85 0 0 0 1 93 0 1 0 1 77 17 16 2 10 22 \012CALL[ ]	/* CallFunction */";
};
width = 388;
}
);
leftKerningGroup = periodcentered;
note = hyphen;
rightKerningGroup = periodcentered;
unicode = 002D;
},
{
glyphname = endash;
layers = (
{
layerId = "4A38D2CF-722B-4995-83FB-3A8ED46F73E6";
paths = (
{
closed = 1;
nodes = (
"0 229 LINE",
"500 229 LINE",
"500 342 LINE",
"0 342 LINE",
"0 342 LINE"
);
}
);
userData = {
assembly = "NPUSHB[ ]	/* 21 values pushed */\0120 0 1 1 0 85 0 0 0 1 93 0 1 0 1 77 17 16 2 10 22 \012CALL[ ]	/* CallFunction */";
};
width = 500;
}
);
note = endash;
unicode = 2013;
},
{
glyphname = emdash;
layers = (
{
layerId = "4A38D2CF-722B-4995-83FB-3A8ED46F73E6";
paths = (
{
closed = 1;
nodes = (
"0 229 LINE",
"1000 229 LINE",
"1000 342 LINE",
"0 342 LINE",
"0 342 LINE"
);
}
);
userData = {
assembly = "NPUSHB[ ]	/* 21 values pushed */\0120 0 1 1 0 85 0 0 0 1 93 0 1 0 1 77 17 16 2 10 22 \012CALL[ ]	/* CallFunction */";
};
width = 1000;
}
);
note = emdash;
unicode = 2014;
},
{
glyphname = figuredash;
layers = (
{
layerId = "4A38D2CF-722B-4995-83FB-3A8ED46F73E6";
paths = (
{
closed = 1;
nodes = (
"42 299 LINE",
"658 299 LINE",
"658 412 LINE",
"42 412 LINE",
"42 412 LINE"
);
}
);
userData = {
assembly = "NPUSHB[ ]	/* 21 values pushed */\0120 0 1 1 0 85 0 0 0 1 93 0 1 0 1 77 17 16 2 10 22 \012CALL[ ]	/* CallFunction */";
};
width = 700;
}
);
note = figuredash;
unicode = 2012;
},
{
glyphname = underscore;
layers = (
{
layerId = "4A38D2CF-722B-4995-83FB-3A8ED46F73E6";
paths = (
{
closed = 1;
nodes = (
"0 -104 LINE",
"500 -104 LINE",
"500 0 LINE",
"0 0 LINE",
"0 0 LINE"
);
}
);
userData = {
assembly = "PUSHB[ ]	/* 2 values pushed */\0126 100 \012WCVTP[ ]	/* WriteCVTInPixels */\012NPUSHB[ ]	/* 21 values pushed */\0120 0 1 1 0 85 0 0 0 1 93 0 1 0 1 77 17 16 2 10 22 \012CALL[ ]	/* CallFunction */\012PUSHB[ ]	/* 2 values pushed */\0126 0 \012WCVTP[ ]	/* WriteCVTInPixels */";
};
width = 500;
}
);
leftKerningGroup = underscore;
note = underscore;
rightKerningGroup = underscore;
unicode = 005F;
},
{
glyphname = quoteleft;
layers = (
{
layerId = "4A38D2CF-722B-4995-83FB-3A8ED46F73E6";
paths = (
{
closed = 1;
nodes = (
"243 742 LINE",
"124 742 LINE",
"60 595 LINE SMOOTH",
"39 550 OFFCURVE",
"27 504 OFFCURVE",
"27 481 QCURVE SMOOTH",
"27 431 OFFCURVE",
"91 369 OFFCURVE",
"141 369 QCURVE SMOOTH",
"191 369 OFFCURVE",
"255 431 OFFCURVE",
"255 481 QCURVE SMOOTH",
"255 515 OFFCURVE",
"224 566 OFFCURVE",
"196 579 QCURVE",
"196 579 LINE"
);
}
);
userData = {
assembly = "PUSHB[ ]	/* 6 values pushed */\01214 1 0 1 1 74 \012MPPEM[ ]	/* MeasurePixelPerEm */\012PUSHB[ ]	/* 1 value pushed */\01212 \012LT[ ]	/* LessThan */\012IF[ ]	/* If */\012NPUSHB[ ]	/* 11 values pushed */\0120 0 0 1 93 0 1 1 68 0 76 \012ELSE[ ]	/* Else */\012NPUSHB[ ]	/* 16 values pushed */\0120 1 0 0 1 85 0 1 1 0 95 0 0 1 0 79 \012EIF[ ]	/* EndIf */\012PUSHB[ ]	/* 5 values pushed */\01222 36 2 10 22 \012CALL[ ]	/* CallFunction */";
};
width = 283;
}
);
leftKerningGroup = quotedblleft;
note = quoteleft;
rightKerningGroup = quotedblleft;
unicode = 2018;
},
{
glyphname = quoteright;
layers = (
{
layerId = "4A38D2CF-722B-4995-83FB-3A8ED46F73E6";
paths = (
{
closed = 1;
nodes = (
"92 751 OFFCURVE",
"28 689 OFFCURVE",
"28 639 QCURVE SMOOTH",
"28 605 OFFCURVE",
"59 554 OFFCURVE",
"87 541 QCURVE",
"40 378 LINE",
"159 378 LINE",
"223 524 LINE SMOOTH",
"243 570 OFFCURVE",
"255 616 OFFCURVE",
"255 639 QCURVE SMOOTH",
"255 689 OFFCURVE",
"191 751 OFFCURVE",
"142 751 QCURVE",
"142 751 LINE"
);
}
);
userData = {
assembly = "PUSHB[ ]	/* 6 values pushed */\0128 1 0 1 1 74 \012MPPEM[ ]	/* MeasurePixelPerEm */\012PUSHB[ ]	/* 1 value pushed */\01212 \012LT[ ]	/* LessThan */\012IF[ ]	/* If */\012NPUSHB[ ]	/* 12 values pushed */\0120 0 0 1 95 2 1 1 1 68 0 76 \012ELSE[ ]	/* Else */\012NPUSHB[ ]	/* 18 values pushed */\0122 1 1 0 0 1 87 2 1 1 1 0 93 0 0 1 0 77 \012EIF[ ]	/* EndIf */\012NPUSHB[ ]	/* 10 values pushed */\0120 0 0 14 0 13 22 3 10 21 \012CALL[ ]	/* CallFunction */";
};
width = 283;
}
);
leftKerningGroup = quotedblright;
note = quoteright;
rightKerningGroup = quotedblright;
unicode = 2019;
},
{
glyphname = guilsinglleft;
layers = (
{
layerId = "4A38D2CF-722B-4995-83FB-3A8ED46F73E6";
paths = (
{
closed = 1;
nodes = (
"170 74 LINE",
"339 74 LINE",
"204 272 LINE",
"339 469 LINE",
"170 469 LINE",
"31 272 LINE",
"31 272 LINE"
);
}
);
userData = {
assembly = "NPUSHB[ ]	/* 27 values pushed */\0123 1 1 0 1 74 0 0 1 1 0 85 0 0 0 1 93 0 1 0 1 77 18 17 2 10 22 \012CALL[ ]	/* CallFunction */";
};
width = 360;
}
);
leftKerningGroup = periodcentered;
note = guilsinglleft;
rightKerningGroup = guillemetleft;
unicode = 2039;
},
{
glyphname = guilsinglright;
layers = (
{
layerId = "4A38D2CF-722B-4995-83FB-3A8ED46F73E6";
paths = (
{
closed = 1;
nodes = (
"189 74 LINE",
"329 272 LINE",
"189 469 LINE",
"20 469 LINE",
"155 272 LINE",
"20 74 LINE",
"20 74 LINE"
);
}
);
userData = {
assembly = "NPUSHB[ ]	/* 34 values pushed */\0124 1 2 1 0 1 74 0 0 1 1 0 85 0 0 0 1 93 2 1 1 0 1 77 0 0 0 5 0 5 18 3 10 21 \012CALL[ ]	/* CallFunction */";
};
width = 360;
}
);
leftKerningGroup = guillemetright;
note = guilsinglright;
rightKerningGroup = periodcentered;
unicode = 203A;
},
{
glyphname = quotesingle;
layers = (
{
layerId = "4A38D2CF-722B-4995-83FB-3A8ED46F73E6";
paths = (
{
closed = 1;
nodes = (
"53 408 LINE",
"188 408 LINE",
"201 700 LINE",
"41 700 LINE",
"41 700 LINE"
);
}
);
userData = {
assembly = "NPUSHB[ ]	/* 16 values pushed */\0120 1 1 0 93 0 0 0 66 1 76 17 16 2 10 22 \012CALL[ ]	/* CallFunction */";
};
width = 242;
}
);
leftKerningGroup = quotedbl;
note = quotesingle;
rightKerningGroup = quotedbl;
unicode = 0027;
},
{
glyphname = .notdef;
layers = (
{
layerId = "4A38D2CF-722B-4995-83FB-3A8ED46F73E6";
paths = (
{
closed = 1;
nodes = (
"40 0 LINE",
"547 0 LINE",
"547 700 LINE",
"40 700 LINE",
"40 700 LINE"
);
},
{
closed = 1;
nodes = (
"120 70 LINE",
"120 630 LINE",
"467 630 LINE",
"467 70 LINE",
"467 70 LINE"
);
}
);
userData = {
assembly = "NPUSHB[ ]	/* 38 values pushed */\0120 0 0 2 3 0 2 101 4 1 3 1 1 3 85 4 1 3 3 1 93 0 1 3 1 77 4 4 4 7 4 7 18 17 16 5 13 23 \012CALL[ ]	/* CallFunction */";
};
width = 587;
}
);
note = .notdef;
},
{
glyphname = dollar;
layers = (
{
layerId = "4A38D2CF-722B-4995-83FB-3A8ED46F73E6";
paths = (
{
closed = 1;
nodes = (
"626 285 OFFCURVE",
"549 370 OFFCURVE",
"444 409 OFFCURVE",
"364 426 QCURVE SMOOTH",
"293 441 OFFCURVE",
"229 469 OFFCURVE",
"229 497 QCURVE SMOOTH",
"229 525 OFFCURVE",
"283 560 OFFCURVE",
"342 560 QCURVE SMOOTH",
"436 560 OFFCURVE",
"536 506 QCURVE",
"597 653 LINE",
"556 677 OFFCURVE",
"451 707 OFFCURVE",
"394 712 QCURVE",
"394 820 LINE",
"274 820 LINE",
"274 710 LINE",
"157 696 OFFCURVE",
"33 573 OFFCURVE",
"33 487 QCURVE SMOOTH",
"33 414 OFFCURVE",
"109 328 OFFCURVE",
"215 289 OFFCURVE",
"294 272 QCURVE SMOOTH",
"366 256 OFFCURVE",
"431 227 OFFCURVE",
"431 197 QCURVE SMOOTH",
"431 140 OFFCURVE",
"317 140 QCURVE SMOOTH",
"257 140 OFFCURVE",
"133 178 OFFCURVE",
"86 209 QCURVE",
"21 63 LINE",
"65 33 OFFCURVE",
"199 -8 OFFCURVE",
"274 -13 QCURVE",
"274 -120 LINE",
"394 -120 LINE",
"394 -9 LINE",
"507 8 OFFCURVE",
"626 129 OFFCURVE",
"626 212 QCURVE",
"626 212 LINE"
);
}
);
userData = {
assembly = "NPUSHB[ ]	/* 18 values pushed */\01230 27 24 3 4 3 31 9 2 2 4 8 2 2 1 2 3 74 \012MPPEM[ ]	/* MeasurePixelPerEm */\012PUSHB[ ]	/* 1 value pushed */\01212 \012LT[ ]	/* LessThan */\012IF[ ]	/* If */\012NPUSHB[ ]	/* 25 values pushed */\0120 0 1 1 0 111 0 3 0 4 2 3 4 103 0 2 2 1 95 0 1 1 76 1 76 \012ELSE[ ]	/* Else */\012MPPEM[ ]	/* MeasurePixelPerEm */\012PUSHB[ ]	/* 1 value pushed */\01214 \012LT[ ]	/* LessThan */\012IF[ ]	/* If */\012NPUSHB[ ]	/* 24 values pushed */\0120 0 1 0 132 0 3 0 4 2 3 4 103 0 2 2 1 95 0 1 1 73 1 76 \012ELSE[ ]	/* Else */\012NPUSHB[ ]	/* 24 values pushed */\0120 0 1 0 132 0 3 0 4 2 3 4 103 0 2 2 1 95 0 1 1 76 1 76 \012EIF[ ]	/* EndIf */\012EIF[ ]	/* EndIf */\012PUSHB[ ]	/* 8 values pushed */\01238 28 37 17 19 5 10 25 \012CALL[ ]	/* CallFunction */";
};
width = 647;
}
);
leftKerningGroup = S;
note = dollar;
rightKerningGroup = S;
unicode = 0024;
},
{
glyphname = yen;
layers = (
{
layerId = "4A38D2CF-722B-4995-83FB-3A8ED46F73E6";
paths = (
{
closed = 1;
nodes = (
"773 700 LINE",
"578 700 LINE",
"384 414 LINE",
"191 700 LINE",
"-20 700 LINE",
"240 311 LINE",
"103 311 LINE",
"103 214 LINE",
"277 214 LINE",
"277 173 LINE",
"103 173 LINE",
"103 76 LINE",
"277 76 LINE",
"277 0 LINE",
"475 0 LINE",
"475 76 LINE",
"649 76 LINE",
"649 173 LINE",
"475 173 LINE",
"475 214 LINE",
"649 214 LINE",
"649 311 LINE",
"514 311 LINE",
"514 311 LINE"
);
}
);
userData = {
assembly = "NPUSHB[ ]	/* 54 values pushed */\01220 1 0 9 1 74 8 1 0 7 1 1 2 0 1 102 6 1 2 5 1 3 4 2 3 101 10 1 9 9 66 75 0 4 4 67 4 76 22 21 19 18 17 17 17 17 17 17 17 17 16 11 10 29 \012CALL[ ]	/* CallFunction */";
};
width = 753;
}
);
leftKerningGroup = yen;
note = yen;
rightKerningGroup = yen;
unicode = 00A5;
},
{
glyphname = plus;
layers = (
{
layerId = "4A38D2CF-722B-4995-83FB-3A8ED46F73E6";
paths = (
{
closed = 1;
nodes = (
"551 423 LINE",
"382 423 LINE",
"382 588 LINE",
"228 588 LINE",
"228 423 LINE",
"58 423 LINE",
"58 277 LINE",
"228 277 LINE",
"228 112 LINE",
"382 112 LINE",
"382 277 LINE",
"551 277 LINE",
"551 277 LINE"
);
}
);
userData = {
assembly = "NPUSHB[ ]	/* 35 values pushed */\0120 4 3 1 4 85 5 1 3 2 1 0 1 3 0 101 0 4 4 1 93 0 1 4 1 77 17 17 17 17 17 16 6 10 26 \012CALL[ ]	/* CallFunction */";
};
width = 609;
}
);
leftKerningGroup = periodcentered;
note = plus;
rightKerningGroup = periodcentered;
unicode = 002B;
},
{
glyphname = minus;
layers = (
{
layerId = "4A38D2CF-722B-4995-83FB-3A8ED46F73E6";
paths = (
{
closed = 1;
nodes = (
"58 277 LINE",
"551 277 LINE",
"551 423 LINE",
"58 423 LINE",
"58 423 LINE"
);
}
);
userData = {
assembly = "NPUSHB[ ]	/* 21 values pushed */\0120 0 1 1 0 85 0 0 0 1 93 0 1 0 1 77 17 16 2 13 22 \012CALL[ ]	/* CallFunction */";
};
width = 609;
}
);
leftKerningGroup = periodcentered;
note = minus;
rightKerningGroup = periodcentered;
unicode = 2212;
},
{
glyphname = multiply;
layers = (
{
layerId = "4A38D2CF-722B-4995-83FB-3A8ED46F73E6";
paths = (
{
closed = 1;
nodes = (
"530 473 LINE",
"428 576 LINE",
"305 453 LINE",
"182 576 LINE",
"80 473 LINE",
"203 350 LINE",
"80 227 LINE",
"182 124 LINE",
"305 247 LINE",
"428 124 LINE",
"530 227 LINE",
"407 350 LINE",
"407 350 LINE"
);
}
);
userData = {
assembly = "PUSHB[ ]	/* 4 values pushed */\0128 2 1 48 \012CALL[ ]	/* CallFunction */";
};
width = 609;
}
);
note = multiply;
unicode = 00D7;
},
{
glyphname = divide;
layers = (
{
layerId = "4A38D2CF-722B-4995-83FB-3A8ED46F73E6";
paths = (
{
closed = 1;
nodes = (
"346 469 OFFCURVE",
"402 523 OFFCURVE",
"402 565 QCURVE SMOOTH",
"402 607 OFFCURVE",
"346 660 OFFCURVE",
"305 660 QCURVE SMOOTH",
"263 660 OFFCURVE",
"208 607 OFFCURVE",
"208 565 QCURVE SMOOTH",
"208 523 OFFCURVE",
"263 469 OFFCURVE",
"305 469 QCURVE",
"305 469 LINE"
);
},
{
closed = 1;
nodes = (
"58 277 LINE",
"551 277 LINE",
"551 423 LINE",
"58 423 LINE",
"58 423 LINE"
);
},
{
closed = 1;
nodes = (
"346 40 OFFCURVE",
"402 95 OFFCURVE",
"402 137 QCURVE SMOOTH",
"402 178 OFFCURVE",
"346 231 OFFCURVE",
"305 231 QCURVE SMOOTH",
"263 231 OFFCURVE",
"208 179 OFFCURVE",
"208 137 QCURVE SMOOTH",
"208 95 OFFCURVE",
"263 40 OFFCURVE",
"305 40 QCURVE",
"305 40 LINE"
);
}
);
userData = {
assembly = "NPUSHB[ ]	/* 56 values pushed */\0120 0 6 1 1 2 0 1 103 0 2 0 3 4 2 3 101 0 4 5 5 4 87 0 4 4 5 95 7 1 5 4 5 79 16 16 0 0 16 27 16 26 22 20 15 14 13 12 0 11 0 10 36 8 10 21 \012CALL[ ]	/* CallFunction */";
};
width = 609;
}
);
leftKerningGroup = periodcentered;
note = divide;
rightKerningGroup = periodcentered;
unicode = 00F7;
},
{
glyphname = equal;
layers = (
{
layerId = "4A38D2CF-722B-4995-83FB-3A8ED46F73E6";
paths = (
{
closed = 1;
nodes = (
"58 404 LINE",
"551 404 LINE",
"551 549 LINE",
"58 549 LINE",
"58 549 LINE"
);
},
{
closed = 1;
nodes = (
"58 151 LINE",
"551 151 LINE",
"551 296 LINE",
"58 296 LINE",
"58 296 LINE"
);
}
);
userData = {
assembly = "NPUSHB[ ]	/* 25 values pushed */\0120 2 0 3 2 3 97 0 1 1 0 93 0 0 0 69 1 76 17 17 17 16 4 10 24 \012CALL[ ]	/* CallFunction */";
};
width = 609;
}
);
note = equal;
unicode = 003D;
},
{
glyphname = notequal;
layers = (
{
layerId = "4A38D2CF-722B-4995-83FB-3A8ED46F73E6";
paths = (
{
closed = 1;
nodes = (
"551 404 LINE",
"551 549 LINE",
"483 549 LINE",
"538 655 LINE",
"386 655 LINE",
"331 549 LINE",
"58 549 LINE",
"58 404 LINE",
"256 404 LINE",
"201 296 LINE",
"58 296 LINE",
"58 151 LINE",
"126 151 LINE",
"71 45 LINE",
"224 45 LINE",
"279 151 LINE",
"551 151 LINE",
"551 296 LINE",
"353 296 LINE",
"409 404 LINE",
"409 404 LINE"
);
}
);
userData = {
assembly = "MPPEM[ ]	/* MeasurePixelPerEm */\012PUSHB[ ]	/* 1 value pushed */\01212 \012LT[ ]	/* LessThan */\012IF[ ]	/* If */\012NPUSHB[ ]	/* 42 values pushed */\0120 7 6 6 7 110 0 2 1 1 2 111 8 1 6 10 9 2 5 0 6 5 102 4 1 0 1 1 0 85 4 1 0 0 1 93 3 1 1 0 1 77 \012ELSE[ ]	/* Else */\012NPUSHB[ ]	/* 40 values pushed */\0120 7 6 7 131 0 2 1 2 132 8 1 6 10 9 2 5 0 6 5 102 4 1 0 1 1 0 85 4 1 0 0 1 93 3 1 1 0 1 77 \012EIF[ ]	/* EndIf */\012NPUSHB[ ]	/* 18 values pushed */\0120 0 0 19 0 19 17 17 17 17 17 17 17 17 17 11 13 29 \012CALL[ ]	/* CallFunction */";
};
width = 609;
}
);
note = notequal;
unicode = 2260;
},
{
glyphname = greater;
layers = (
{
layerId = "4A38D2CF-722B-4995-83FB-3A8ED46F73E6";
paths = (
{
closed = 1;
nodes = (
"58 609 LINE",
"58 463 LINE",
"377 350 LINE",
"58 237 LINE",
"58 91 LINE",
"551 273 LINE",
"551 427 LINE",
"551 427 LINE"
);
}
);
userData = {
assembly = "PUSHB[ ]	/* 4 values pushed */\0126 2 1 48 \012CALL[ ]	/* CallFunction */";
};
width = 609;
}
);
note = greater;
unicode = 003E;
},
{
glyphname = less;
layers = (
{
layerId = "4A38D2CF-722B-4995-83FB-3A8ED46F73E6";
paths = (
{
closed = 1;
nodes = (
"551 609 LINE",
"58 427 LINE",
"58 273 LINE",
"551 91 LINE",
"551 237 LINE",
"232 350 LINE",
"551 463 LINE",
"551 463 LINE"
);
}
);
userData = {
assembly = "PUSHB[ ]	/* 4 values pushed */\0126 3 1 48 \012CALL[ ]	/* CallFunction */";
};
width = 609;
}
);
note = less;
unicode = 003C;
},
{
glyphname = greaterequal;
layers = (
{
layerId = "4A38D2CF-722B-4995-83FB-3A8ED46F73E6";
paths = (
{
closed = 1;
nodes = (
"58 677 LINE",
"58 533 LINE",
"348 434 LINE",
"58 335 LINE",
"58 191 LINE",
"551 359 LINE",
"551 509 LINE",
"551 509 LINE"
);
},
{
closed = 1;
nodes = (
"58 0 LINE",
"551 0 LINE",
"551 145 LINE",
"58 145 LINE",
"58 145 LINE"
);
}
);
userData = {
assembly = "NPUSHB[ ]	/* 31 values pushed */\0126 5 4 3 2 1 0 7 0 72 0 0 1 1 0 85 0 0 0 1 93 0 1 0 1 77 17 23 2 13 22 \012CALL[ ]	/* CallFunction */";
};
width = 609;
}
);
note = greaterequal;
unicode = 2265;
},
{
glyphname = lessequal;
layers = (
{
layerId = "4A38D2CF-722B-4995-83FB-3A8ED46F73E6";
paths = (
{
closed = 1;
nodes = (
"551 677 LINE",
"58 509 LINE",
"58 359 LINE",
"551 191 LINE",
"551 335 LINE",
"261 434 LINE",
"551 533 LINE",
"551 533 LINE"
);
},
{
closed = 1;
nodes = (
"58 0 LINE",
"551 0 LINE",
"551 145 LINE",
"58 145 LINE",
"58 145 LINE"
);
}
);
userData = {
assembly = "NPUSHB[ ]	/* 31 values pushed */\0126 5 4 3 2 1 0 7 0 72 0 0 1 1 0 85 0 0 0 1 93 0 1 0 1 77 17 23 2 13 22 \012CALL[ ]	/* CallFunction */";
};
width = 609;
}
);
note = lessequal;
unicode = 2264;
},
{
glyphname = plusminus;
layers = (
{
layerId = "4A38D2CF-722B-4995-83FB-3A8ED46F73E6";
paths = (
{
closed = 1;
nodes = (
"382 518 LINE",
"382 676 LINE",
"228 676 LINE",
"228 518 LINE",
"58 518 LINE",
"58 379 LINE",
"228 379 LINE",
"228 221 LINE",
"382 221 LINE",
"382 379 LINE",
"551 379 LINE",
"551 518 LINE",
"551 518 LINE"
);
},
{
closed = 1;
nodes = (
"58 0 LINE",
"551 0 LINE",
"551 145 LINE",
"58 145 LINE",
"58 145 LINE"
);
}
);
userData = {
assembly = "MPPEM[ ]	/* MeasurePixelPerEm */\012PUSHB[ ]	/* 1 value pushed */\01210 \012LT[ ]	/* LessThan */\012IF[ ]	/* If */\012NPUSHB[ ]	/* 34 values pushed */\0122 1 0 0 3 93 8 5 2 3 3 69 75 0 1 1 4 93 0 4 4 66 75 0 6 6 7 93 0 7 7 67 7 76 \012ELSE[ ]	/* Else */\012MPPEM[ ]	/* MeasurePixelPerEm */\012PUSHB[ ]	/* 1 value pushed */\01214 \012LT[ ]	/* LessThan */\012IF[ ]	/* If */\012NPUSHB[ ]	/* 30 values pushed */\0128 5 2 3 2 1 0 1 3 0 101 0 4 0 1 6 4 1 101 0 6 6 7 93 0 7 7 67 7 76 \012ELSE[ ]	/* Else */\012MPPEM[ ]	/* MeasurePixelPerEm */\012PUSHB[ ]	/* 1 value pushed */\01221 \012LT[ ]	/* LessThan */\012IF[ ]	/* If */\012NPUSHB[ ]	/* 34 values pushed */\0122 1 0 0 3 93 8 5 2 3 3 69 75 0 1 1 4 93 0 4 4 66 75 0 6 6 7 93 0 7 7 67 7 76 \012ELSE[ ]	/* Else */\012NPUSHB[ ]	/* 30 values pushed */\0128 5 2 3 2 1 0 1 3 0 101 0 4 0 1 6 4 1 101 0 6 6 7 93 0 7 7 67 7 76 \012EIF[ ]	/* EndIf */\012EIF[ ]	/* EndIf */\012EIF[ ]	/* EndIf */\012NPUSHB[ ]	/* 18 values pushed */\0120 0 15 14 13 12 0 11 0 11 17 17 17 17 17 9 10 25 \012CALL[ ]	/* CallFunction */";
};
width = 609;
}
);
note = plusminus;
unicode = 00B1;
},
{
glyphname = approxequal;
layers = (
{
layerId = "4A38D2CF-722B-4995-83FB-3A8ED46F73E6";
paths = (
{
closed = 1;
nodes = (
"475 368 OFFCURVE",
"563 476 OFFCURVE",
"564 574 QCURVE",
"447 574 LINE",
"445 541 OFFCURVE",
"416 503 OFFCURVE",
"391 503 QCURVE SMOOTH",
"377 503 OFFCURVE",
"350 518 OFFCURVE",
"328 534 QCURVE SMOOTH",
"294 558 OFFCURVE",
"241 584 OFFCURVE",
"205 584 QCURVE SMOOTH",
"134 584 OFFCURVE",
"46 476 OFFCURVE",
"45 379 QCURVE",
"162 379 LINE",
"163 412 OFFCURVE",
"194 449 OFFCURVE",
"219 449 QCURVE SMOOTH",
"233 449 OFFCURVE",
"260 434 OFFCURVE",
"282 418 QCURVE SMOOTH",
"316 394 OFFCURVE",
"369 368 OFFCURVE",
"404 368 QCURVE",
"404 368 LINE"
);
},
{
closed = 1;
nodes = (
"475 115 OFFCURVE",
"563 224 OFFCURVE",
"564 321 QCURVE",
"447 321 LINE",
"446 288 OFFCURVE",
"416 251 OFFCURVE",
"391 251 QCURVE SMOOTH",
"377 251 OFFCURVE",
"350 266 OFFCURVE",
"328 282 QCURVE SMOOTH",
"294 306 OFFCURVE",
"241 332 OFFCURVE",
"205 332 QCURVE SMOOTH",
"134 332 OFFCURVE",
"46 223 OFFCURVE",
"45 126 QCURVE",
"162 126 LINE",
"163 159 OFFCURVE",
"194 197 OFFCURVE",
"219 197 QCURVE SMOOTH",
"233 197 OFFCURVE",
"257 184 OFFCURVE",
"282 166 QCURVE SMOOTH",
"315 142 OFFCURVE",
"369 115 OFFCURVE",
"404 115 QCURVE",
"404 115 LINE"
);
}
);
userData = {
assembly = "MPPEM[ ]	/* MeasurePixelPerEm */\012PUSHB[ ]	/* 1 value pushed */\01218 \012LT[ ]	/* LessThan */\012IF[ ]	/* If */\012NPUSHB[ ]	/* 70 values pushed */\0120 4 2 3 3 4 112 0 1 0 5 0 1 112 0 10 8 9 9 10 112 0 7 6 11 6 7 112 0 2 0 0 1 2 0 103 0 3 12 1 5 8 3 5 104 0 9 6 11 9 87 0 8 0 6 7 8 6 103 0 9 9 11 96 13 1 11 9 11 80 \012ELSE[ ]	/* Else */\012NPUSHB[ ]	/* 74 values pushed */\0120 4 2 3 2 4 3 126 0 1 0 5 0 1 5 126 0 10 8 9 8 10 9 126 0 7 6 11 6 7 11 126 0 2 0 0 1 2 0 103 0 3 12 1 5 8 3 5 104 0 9 6 11 9 87 0 8 0 6 7 8 6 103 0 9 9 11 96 13 1 11 9 11 80 \012EIF[ ]	/* EndIf */\012NPUSHB[ ]	/* 30 values pushed */\01226 26 0 0 26 51 26 50 48 47 45 43 39 37 35 34 32 30 0 25 0 24 18 36 34 18 36 14 13 25 \012CALL[ ]	/* CallFunction */";
};
width = 609;
}
);
note = approxequal;
unicode = 2248;
},
{
glyphname = asciitilde;
layers = (
{
layerId = "4A38D2CF-722B-4995-83FB-3A8ED46F73E6";
paths = (
{
closed = 1;
nodes = (
"475 243 OFFCURVE",
"563 351 OFFCURVE",
"564 449 QCURVE",
"447 449 LINE",
"445 416 OFFCURVE",
"416 378 OFFCURVE",
"391 378 QCURVE SMOOTH",
"377 378 OFFCURVE",
"350 393 OFFCURVE",
"328 409 QCURVE SMOOTH",
"294 433 OFFCURVE",
"241 459 OFFCURVE",
"205 459 QCURVE SMOOTH",
"134 459 OFFCURVE",
"46 351 OFFCURVE",
"45 254 QCURVE",
"162 254 LINE",
"163 287 OFFCURVE",
"194 324 OFFCURVE",
"219 324 QCURVE SMOOTH",
"233 324 OFFCURVE",
"260 309 OFFCURVE",
"282 293 QCURVE SMOOTH",
"316 269 OFFCURVE",
"369 243 OFFCURVE",
"404 243 QCURVE",
"404 243 LINE"
);
}
);
userData = {
assembly = "PUSHB[ ]	/* 2 values pushed */\0126 100 \012WCVTP[ ]	/* WriteCVTInPixels */\012MPPEM[ ]	/* MeasurePixelPerEm */\012PUSHB[ ]	/* 1 value pushed */\01221 \012LT[ ]	/* LessThan */\012IF[ ]	/* If */\012NPUSHB[ ]	/* 27 values pushed */\0120 3 0 1 3 87 4 1 2 0 0 1 2 0 103 0 3 3 1 96 6 5 2 1 3 1 80 \012ELSE[ ]	/* Else */\012MPPEM[ ]	/* MeasurePixelPerEm */\012PUSHB[ ]	/* 1 value pushed */\01225 \012LT[ ]	/* LessThan */\012IF[ ]	/* If */\012NPUSHB[ ]	/* 34 values pushed */\0120 1 0 5 0 1 5 126 0 3 0 5 3 87 4 1 2 0 0 1 2 0 103 0 3 3 5 96 6 1 5 3 5 80 \012ELSE[ ]	/* Else */\012NPUSHB[ ]	/* 41 values pushed */\0120 4 2 3 2 4 3 126 0 1 0 5 0 1 5 126 0 3 0 5 3 87 0 2 0 0 1 2 0 103 0 3 3 5 96 6 1 5 3 5 80 \012EIF[ ]	/* EndIf */\012EIF[ ]	/* EndIf */\012NPUSHB[ ]	/* 14 values pushed */\0120 0 0 25 0 24 18 36 34 18 36 7 10 25 \012CALL[ ]	/* CallFunction */\012PUSHB[ ]	/* 2 values pushed */\0126 0 \012WCVTP[ ]	/* WriteCVTInPixels */";
};
width = 609;
}
);
leftKerningGroup = periodcentered;
note = asciitilde;
rightKerningGroup = periodcentered;
unicode = 007E;
},
{
glyphname = infinity;
layers = (
{
layerId = "4A38D2CF-722B-4995-83FB-3A8ED46F73E6";
paths = (
{
closed = 1;
nodes = (
"612 570 OFFCURVE",
"509 512 OFFCURVE",
"468 461 QCURVE",
"429 512 OFFCURVE",
"326 570 OFFCURVE",
"251 570 QCURVE SMOOTH",
"188 570 OFFCURVE",
"85 513 OFFCURVE",
"27 413 OFFCURVE",
"27 350 QCURVE SMOOTH",
"27 288 OFFCURVE",
"85 187 OFFCURVE",
"188 130 OFFCURVE",
"251 130 QCURVE SMOOTH",
"326 130 OFFCURVE",
"429 188 OFFCURVE",
"468 239 QCURVE",
"509 188 OFFCURVE",
"612 130 OFFCURVE",
"687 130 QCURVE SMOOTH",
"749 130 OFFCURVE",
"850 187 OFFCURVE",
"908 288 OFFCURVE",
"908 350 QCURVE SMOOTH",
"908 412 OFFCURVE",
"850 513 OFFCURVE",
"749 570 OFFCURVE",
"687 570 QCURVE",
"687 570 LINE"
);
},
{
closed = 1;
nodes = (
"227 262 OFFCURVE",
"177 312 OFFCURVE",
"177 350 QCURVE SMOOTH",
"177 388 OFFCURVE",
"227 438 OFFCURVE",
"264 438 QCURVE SMOOTH",
"304 438 OFFCURVE",
"362 393 OFFCURVE",
"392 350 QCURVE",
"362 307 OFFCURVE",
"304 262 OFFCURVE",
"264 262 QCURVE",
"264 262 LINE"
);
},
{
closed = 1;
nodes = (
"631 262 OFFCURVE",
"572 307 OFFCURVE",
"544 350 QCURVE",
"572 393 OFFCURVE",
"631 438 OFFCURVE",
"671 438 QCURVE SMOOTH",
"708 438 OFFCURVE",
"757 388 OFFCURVE",
"757 350 QCURVE SMOOTH",
"757 312 OFFCURVE",
"708 262 OFFCURVE",
"671 262 QCURVE",
"671 262 LINE"
);
}
);
userData = {
assembly = "NPUSHB[ ]	/* 77 values pushed */\01224 1 4 2 48 30 2 5 4 10 1 0 5 3 74 8 3 2 2 6 1 4 5 2 4 103 10 7 9 3 5 0 0 5 87 10 7 9 3 5 5 0 95 1 1 0 5 0 79 40 40 28 28 0 0 40 51 40 50 46 44 28 39 28 38 34 32 0 27 0 26 38 36 38 11 13 23 \012CALL[ ]	/* CallFunction */";
};
width = 935;
}
);
note = infinity;
unicode = 221E;
},
{
glyphname = percent;
layers = (
{
layerId = "4A38D2CF-722B-4995-83FB-3A8ED46F73E6";
paths = (
{
closed = 1;
nodes = (
"281 321 OFFCURVE",
"381 425 OFFCURVE",
"381 515 QCURVE SMOOTH",
"381 604 OFFCURVE",
"281 709 OFFCURVE",
"201 709 QCURVE SMOOTH",
"149 709 OFFCURVE",
"68 662 OFFCURVE",
"22 574 OFFCURVE",
"22 515 QCURVE SMOOTH",
"22 425 OFFCURVE",
"122 321 OFFCURVE",
"201 321 QCURVE",
"201 321 LINE"
);
},
{
closed = 1;
nodes = (
"137 0 LINE",
"281 0 LINE",
"759 700 LINE",
"615 700 LINE",
"615 700 LINE"
);
},
{
closed = 1;
nodes = (
"175 416 OFFCURVE",
"142 465 OFFCURVE",
"142 515 QCURVE SMOOTH",
"142 565 OFFCURVE",
"175 614 OFFCURVE",
"201 614 QCURVE SMOOTH",
"228 614 OFFCURVE",
"260 566 OFFCURVE",
"260 515 QCURVE SMOOTH",
"260 464 OFFCURVE",
"228 416 OFFCURVE",
"201 416 QCURVE",
"201 416 LINE"
);
},
{
closed = 1;
nodes = (
"775 -9 OFFCURVE",
"875 95 OFFCURVE",
"875 185 QCURVE SMOOTH",
"875 274 OFFCURVE",
"775 379 OFFCURVE",
"695 379 QCURVE SMOOTH",
"616 379 OFFCURVE",
"516 274 OFFCURVE",
"516 185 QCURVE SMOOTH",
"516 95 OFFCURVE",
"615 -9 OFFCURVE",
"695 -9 QCURVE",
"695 -9 LINE"
);
},
{
closed = 1;
nodes = (
"668 86 OFFCURVE",
"636 134 OFFCURVE",
"636 185 QCURVE SMOOTH",
"636 236 OFFCURVE",
"668 284 OFFCURVE",
"695 284 QCURVE SMOOTH",
"722 284 OFFCURVE",
"754 236 OFFCURVE",
"754 185 QCURVE SMOOTH",
"754 134 OFFCURVE",
"722 86 OFFCURVE",
"695 86 QCURVE",
"695 86 LINE"
);
}
);
userData = {
assembly = "MPPEM[ ]	/* MeasurePixelPerEm */\012PUSHB[ ]	/* 1 value pushed */\01227 \012LT[ ]	/* LessThan */\012IF[ ]	/* If */\012NPUSHB[ ]	/* 43 values pushed */\01211 1 5 10 1 1 8 5 1 103 0 6 0 8 9 6 8 104 0 4 4 0 95 2 1 0 0 72 75 13 1 9 9 3 95 12 7 2 3 3 67 3 76 \012ELSE[ ]	/* Else */\012NPUSHB[ ]	/* 51 values pushed */\01211 1 5 10 1 1 8 5 1 103 0 6 0 8 9 6 8 104 0 2 2 66 75 0 4 4 0 95 0 0 0 72 75 0 3 3 67 75 13 1 9 9 7 95 12 1 7 7 76 7 76 \012EIF[ ]	/* EndIf */\012NPUSHB[ ]	/* 38 values pushed */\01241 41 29 29 17 17 0 0 41 52 41 51 47 45 29 40 29 39 35 33 17 28 17 27 23 21 16 15 14 13 0 12 0 11 37 14 10 21 \012CALL[ ]	/* CallFunction */";
};
width = 897;
}
);
leftKerningGroup = percent;
note = percent;
rightKerningGroup = percent;
unicode = 0025;
},
{
glyphname = at;
layers = (
{
layerId = "4A38D2CF-722B-4995-83FB-3A8ED46F73E6";
paths = (
{
closed = 1;
nodes = (
"379 712 OFFCURVE",
"156 592 OFFCURVE",
"34 383 OFFCURVE",
"34 253 QCURVE SMOOTH",
"34 122 OFFCURVE",
"155 -88 OFFCURVE",
"376 -208 OFFCURVE",
"521 -208 QCURVE SMOOTH",
"585 -208 OFFCURVE",
"712 -182 OFFCURVE",
"757 -160 QCURVE",
"720 -53 LINE",
"628 -97 OFFCURVE",
"521 -97 QCURVE SMOOTH",
"416 -97 OFFCURVE",
"255 -8 OFFCURVE",
"167 152 OFFCURVE",
"167 253 QCURVE SMOOTH",
"167 352 OFFCURVE",
"257 511 OFFCURVE",
"420 601 OFFCURVE",
"525 601 QCURVE SMOOTH",
"631 601 OFFCURVE",
"793 518 OFFCURVE",
"882 370 OFFCURVE",
"882 275 QCURVE SMOOTH",
"882 120 OFFCURVE",
"819 120 QCURVE SMOOTH",
"799 120 OFFCURVE",
"775 148 OFFCURVE",
"775 180 QCURVE SMOOTH",
"775 485 LINE",
"612 485 LINE",
"612 436 LINE",
"561 493 OFFCURVE",
"473 493 QCURVE SMOOTH",
"413 493 OFFCURVE",
"311 431 OFFCURVE",
"251 317 OFFCURVE",
"251 243 QCURVE SMOOTH",
"251 169 OFFCURVE",
"312 55 OFFCURVE",
"414 -8 OFFCURVE",
"473 -8 QCURVE SMOOTH",
"586 -8 OFFCURVE",
"635 79 QCURVE",
"653 36 OFFCURVE",
"729 -8 OFFCURVE",
"782 -8 QCURVE SMOOTH",
"846 -8 OFFCURVE",
"945 59 OFFCURVE",
"1002 188 OFFCURVE",
"1002 278 QCURVE SMOOTH",
"1002 400 OFFCURVE",
"881 598 OFFCURVE",
"664 712 OFFCURVE",
"525 712 QCURVE",
"525 712 LINE"
);
},
{
closed = 1;
nodes = (
"472 128 OFFCURVE",
"418 189 OFFCURVE",
"418 243 QCURVE SMOOTH",
"418 297 OFFCURVE",
"472 357 OFFCURVE",
"516 357 QCURVE SMOOTH",
"560 357 OFFCURVE",
"615 297 OFFCURVE",
"615 243 QCURVE SMOOTH",
"615 188 OFFCURVE",
"560 128 OFFCURVE",
"516 128 QCURVE",
"516 128 LINE"
);
}
);
userData = {
assembly = "MPPEM[ ]	/* MeasurePixelPerEm */\012PUSHB[ ]	/* 1 value pushed */\01230 \012LT[ ]	/* LessThan */\012IF[ ]	/* If */\012NPUSHB[ ]	/* 18 values pushed */\01222 1 9 2 10 1 0 4 44 1 6 0 45 1 7 6 4 74 \012ELSE[ ]	/* Else */\012NPUSHB[ ]	/* 18 values pushed */\01222 1 9 3 10 1 0 4 44 1 6 0 45 1 7 6 4 74 \012EIF[ ]	/* EndIf */\012MPPEM[ ]	/* MeasurePixelPerEm */\012PUSHB[ ]	/* 1 value pushed */\01230 \012LT[ ]	/* LessThan */\012IF[ ]	/* If */\012NPUSHB[ ]	/* 44 values pushed */\0123 1 2 0 9 4 2 9 103 0 5 5 8 95 11 1 8 8 72 75 12 10 2 4 4 0 96 1 1 0 0 76 75 0 6 6 7 95 0 7 7 77 7 76 \012ELSE[ ]	/* Else */\012NPUSHB[ ]	/* 61 values pushed */\0120 3 2 9 2 3 9 126 0 2 0 9 10 2 9 103 0 5 5 8 95 11 1 8 8 72 75 12 1 10 10 0 95 1 1 0 0 76 75 0 4 4 0 96 1 1 0 0 76 75 0 6 6 7 95 0 7 7 77 7 76 \012EIF[ ]	/* EndIf */\012NPUSHB[ ]	/* 25 values pushed */\01257 57 0 0 57 68 57 67 63 61 0 56 0 55 36 38 36 35 18 38 35 38 13 10 28 \012CALL[ ]	/* CallFunction */";
};
width = 1036;
}
);
leftKerningGroup = C;
note = at;
rightKerningGroup = D;
unicode = 0040;
},
{
glyphname = ampersand;
layers = (
{
layerId = "4A38D2CF-722B-4995-83FB-3A8ED46F73E6";
paths = (
{
closed = 1;
nodes = (
"726 105 LINE",
"652 171 LINE",
"697 240 OFFCURVE",
"717 330 QCURVE",
"564 376 LINE",
"553 320 OFFCURVE",
"533 276 QCURVE",
"431 367 LINE",
"498 404 OFFCURVE",
"561 488 OFFCURVE",
"561 542 QCURVE SMOOTH",
"561 619 OFFCURVE",
"442 710 OFFCURVE",
"345 710 QCURVE SMOOTH",
"275 710 OFFCURVE",
"168 665 OFFCURVE",
"110 583 OFFCURVE",
"110 530 QCURVE SMOOTH",
"110 457 OFFCURVE",
"177 389 QCURVE",
"101 348 OFFCURVE",
"31 249 OFFCURVE",
"31 183 QCURVE SMOOTH",
"31 127 OFFCURVE",
"103 37 OFFCURVE",
"231 -14 OFFCURVE",
"310 -14 QCURVE SMOOTH",
"376 -14 OFFCURVE",
"496 23 OFFCURVE",
"545 58 QCURVE",
"624 -12 LINE",
"624 -12 LINE"
);
},
{
closed = 1;
nodes = (
"372 585 OFFCURVE",
"401 560 OFFCURVE",
"401 538 QCURVE SMOOTH",
"401 518 OFFCURVE",
"368 481 OFFCURVE",
"328 460 QCURVE",
"302 485 OFFCURVE",
"283 516 OFFCURVE",
"283 533 QCURVE SMOOTH",
"283 556 OFFCURVE",
"316 585 OFFCURVE",
"345 585 QCURVE",
"345 585 LINE"
);
},
{
closed = 1;
nodes = (
"275 131 OFFCURVE",
"217 172 OFFCURVE",
"217 204 QCURVE SMOOTH",
"217 231 OFFCURVE",
"247 274 OFFCURVE",
"280 294 QCURVE",
"431 160 LINE",
"382 131 OFFCURVE",
"324 131 QCURVE",
"324 131 LINE"
);
}
);
userData = {
assembly = "NPUSHB[ ]	/* 59 values pushed */\01245 44 36 29 27 26 24 23 11 9 3 2 30 1 2 0 3 2 74 4 1 2 2 1 95 0 1 1 72 75 5 1 3 3 0 95 0 0 0 73 0 76 43 43 31 31 43 51 43 50 31 42 31 41 43 35 6 10 22 \012CALL[ ]	/* CallFunction */";
};
width = 752;
}
);
leftKerningGroup = ampersand;
note = ampersand;
rightKerningGroup = ampersand;
unicode = 0026;
},
{
glyphname = paragraph;
layers = (
{
layerId = "4A38D2CF-722B-4995-83FB-3A8ED46F73E6";
paths = (
{
closed = 1;
nodes = (
"228 -100 LINE",
"382 -100 LINE",
"382 609 LINE",
"483 609 LINE",
"483 -100 LINE",
"637 -100 LINE",
"637 742 LINE",
"261 742 LINE SMOOTH",
"186 742 OFFCURVE",
"73 694 OFFCURVE",
"11 604 OFFCURVE",
"11 544 QCURVE SMOOTH",
"11 486 OFFCURVE",
"68 398 OFFCURVE",
"167 349 OFFCURVE",
"228 347 QCURVE",
"228 347 LINE"
);
}
);
userData = {
assembly = "MPPEM[ ]	/* MeasurePixelPerEm */\012PUSHB[ ]	/* 1 value pushed */\01212 \012LT[ ]	/* LessThan */\012IF[ ]	/* If */\012NPUSHB[ ]	/* 24 values pushed */\0120 0 3 2 3 0 2 126 4 1 2 2 130 0 3 3 1 93 0 1 1 68 3 76 \012ELSE[ ]	/* Else */\012NPUSHB[ ]	/* 29 values pushed */\0120 0 3 2 3 0 2 126 4 1 2 2 130 0 1 3 3 1 85 0 1 1 3 93 0 3 1 3 77 \012EIF[ ]	/* EndIf */\012PUSHB[ ]	/* 8 values pushed */\01217 17 17 38 16 5 10 25 \012CALL[ ]	/* CallFunction */";
};
width = 707;
}
);
leftKerningGroup = paragraph;
note = paragraph;
rightKerningGroup = H;
unicode = 00B6;
},
{
glyphname = section;
layers = (
{
layerId = "4A38D2CF-722B-4995-83FB-3A8ED46F73E6";
paths = (
{
closed = 1;
nodes = (
"509 364 OFFCURVE",
"449 435 OFFCURVE",
"368 466 OFFCURVE",
"307 479 QCURVE SMOOTH",
"257 489 OFFCURVE",
"211 509 OFFCURVE",
"211 529 QCURVE SMOOTH",
"211 576 OFFCURVE",
"300 576 QCURVE SMOOTH",
"392 576 OFFCURVE",
"465 534 QCURVE",
"518 663 LINE",
"482 685 OFFCURVE",
"360 709 OFFCURVE",
"310 709 QCURVE SMOOTH",
"180 709 OFFCURVE",
"44 606 OFFCURVE",
"44 522 QCURVE SMOOTH",
"44 456 OFFCURVE",
"83 419 QCURVE",
"24 371 OFFCURVE",
"24 290 QCURVE SMOOTH",
"24 233 OFFCURVE",
"81 167 OFFCURVE",
"158 140 OFFCURVE",
"219 127 QCURVE SMOOTH",
"273 117 OFFCURVE",
"323 95 OFFCURVE",
"323 71 QCURVE SMOOTH",
"323 49 OFFCURVE",
"286 24 OFFCURVE",
"250 24 QCURVE SMOOTH",
"208 24 OFFCURVE",
"108 53 OFFCURVE",
"72 77 QCURVE",
"19 -52 LINE",
"57 -77 OFFCURVE",
"186 -109 OFFCURVE",
"250 -109 QCURVE SMOOTH",
"326 -109 OFFCURVE",
"434 -61 OFFCURVE",
"490 23 OFFCURVE",
"490 77 QCURVE SMOOTH",
"490 142 OFFCURVE",
"450 182 QCURVE",
"479 206 OFFCURVE",
"509 268 OFFCURVE",
"509 303 QCURVE",
"509 303 LINE"
);
},
{
closed = 1;
nodes = (
"188 338 OFFCURVE",
"224 359 QCURVE",
"273 348 OFFCURVE",
"314 337 OFFCURVE",
"345 315 OFFCURVE",
"345 297 QCURVE SMOOTH",
"345 280 OFFCURVE",
"326 251 OFFCURVE",
"309 242 QCURVE",
"260 253 OFFCURVE",
"219 264 OFFCURVE",
"188 286 OFFCURVE",
"188 304 QCURVE",
"188 304 LINE"
);
}
);
userData = {
assembly = "NPUSHB[ ]	/* 44 values pushed */\01235 1 3 2 58 51 36 27 12 2 6 1 3 11 1 0 1 3 74 0 1 0 0 1 0 99 0 3 3 2 95 0 2 2 72 3 76 36 47 37 39 4 10 24 \012CALL[ ]	/* CallFunction */";
};
width = 535;
}
);
leftKerningGroup = section;
note = section;
rightKerningGroup = section;
unicode = 00A7;
},
{
glyphname = copyright;
layers = (
{
layerId = "4A38D2CF-722B-4995-83FB-3A8ED46F73E6";
paths = (
{
closed = 1;
nodes = (
"484 -3 OFFCURVE",
"646 91 OFFCURVE",
"740 254 OFFCURVE",
"740 352 QCURVE SMOOTH",
"740 450 OFFCURVE",
"648 611 OFFCURVE",
"487 703 OFFCURVE",
"388 703 QCURVE SMOOTH",
"289 703 OFFCURVE",
"127 609 OFFCURVE",
"34 447 OFFCURVE",
"34 350 QCURVE SMOOTH",
"34 253 OFFCURVE",
"127 91 OFFCURVE",
"288 -3 OFFCURVE",
"386 -3 QCURVE",
"386 -3 LINE"
);
},
{
closed = 1;
nodes = (
"309 73 OFFCURVE",
"185 146 OFFCURVE",
"115 273 OFFCURVE",
"115 350 QCURVE SMOOTH",
"115 427 OFFCURVE",
"185 554 OFFCURVE",
"310 627 OFFCURVE",
"388 627 QCURVE SMOOTH",
"466 627 OFFCURVE",
"590 555 OFFCURVE",
"659 430 OFFCURVE",
"659 352 QCURVE SMOOTH",
"659 274 OFFCURVE",
"588 147 OFFCURVE",
"463 73 OFFCURVE",
"386 73 QCURVE",
"386 73 LINE"
);
},
{
closed = 1;
nodes = (
"464 150 OFFCURVE",
"556 206 OFFCURVE",
"576 254 QCURVE",
"468 313 LINE",
"445 269 OFFCURVE",
"400 269 QCURVE SMOOTH",
"369 269 OFFCURVE",
"326 312 OFFCURVE",
"326 350 QCURVE SMOOTH",
"326 388 OFFCURVE",
"369 431 OFFCURVE",
"400 431 QCURVE SMOOTH",
"445 431 OFFCURVE",
"468 387 QCURVE",
"576 446 LINE",
"556 494 OFFCURVE",
"464 550 OFFCURVE",
"401 550 QCURVE SMOOTH",
"339 550 OFFCURVE",
"241 499 OFFCURVE",
"186 408 OFFCURVE",
"186 350 QCURVE SMOOTH",
"186 292 OFFCURVE",
"241 201 OFFCURVE",
"339 150 OFFCURVE",
"401 150 QCURVE",
"401 150 LINE"
);
}
);
userData = {
assembly = "PUSHB[ ]	/* 2 values pushed */\0126 100 \012WCVTP[ ]	/* WriteCVTInPixels */\012NPUSHB[ ]	/* 89 values pushed */\01242 1 5 4 53 43 2 6 5 54 1 7 6 3 74 0 0 0 2 4 0 2 103 0 4 0 5 6 4 5 103 0 6 10 1 7 3 6 7 103 9 1 3 1 1 3 87 9 1 3 3 1 95 8 1 1 3 1 79 32 32 16 16 0 0 32 57 32 56 52 50 46 44 40 38 16 31 16 30 24 22 0 15 0 14 38 11 10 21 \012CALL[ ]	/* CallFunction */\012PUSHB[ ]	/* 2 values pushed */\0126 0 \012WCVTP[ ]	/* WriteCVTInPixels */";
};
width = 775;
}
);
leftKerningGroup = C;
note = copyright;
rightKerningGroup = D;
unicode = 00A9;
},
{
glyphname = registered;
layers = (
{
layerId = "4A38D2CF-722B-4995-83FB-3A8ED46F73E6";
paths = (
{
closed = 1;
nodes = (
"289 703 OFFCURVE",
"127 609 OFFCURVE",
"34 447 OFFCURVE",
"34 350 QCURVE SMOOTH",
"34 253 OFFCURVE",
"127 91 OFFCURVE",
"288 -3 OFFCURVE",
"386 -3 QCURVE SMOOTH",
"484 -3 OFFCURVE",
"646 91 OFFCURVE",
"740 254 OFFCURVE",
"740 352 QCURVE SMOOTH",
"740 450 OFFCURVE",
"648 611 OFFCURVE",
"487 703 OFFCURVE",
"388 703 QCURVE",
"388 703 LINE"
);
},
{
closed = 1;
nodes = (
"508 285 LINE",
"574 320 OFFCURVE",
"574 402 QCURVE SMOOTH",
"574 466 OFFCURVE",
"482 541 OFFCURVE",
"402 541 QCURVE SMOOTH",
"228 541 LINE",
"228 159 LINE",
"351 159 LINE",
"351 263 LINE",
"398 263 LINE",
"465 159 LINE",
"586 159 LINE",
"549 118 OFFCURVE",
"446 73 OFFCURVE",
"386 73 QCURVE SMOOTH",
"309 73 OFFCURVE",
"185 146 OFFCURVE",
"115 273 OFFCURVE",
"115 350 QCURVE SMOOTH",
"115 427 OFFCURVE",
"185 554 OFFCURVE",
"310 627 OFFCURVE",
"388 627 QCURVE SMOOTH",
"466 627 OFFCURVE",
"590 555 OFFCURVE",
"659 430 OFFCURVE",
"659 352 QCURVE SMOOTH",
"659 297 OFFCURVE",
"623 199 OFFCURVE",
"589 161 QCURVE",
"589 161 LINE"
);
},
{
closed = 1;
nodes = (
"351 351 LINE",
"351 453 LINE",
"394 453 LINE SMOOTH",
"422 453 OFFCURVE",
"452 426 OFFCURVE",
"452 402 QCURVE SMOOTH",
"452 378 OFFCURVE",
"421 351 OFFCURVE",
"394 351 QCURVE",
"394 351 LINE"
);
}
);
userData = {
assembly = "PUSHB[ ]	/* 2 values pushed */\0126 100 \012WCVTP[ ]	/* WriteCVTInPixels */\012NPUSHB[ ]	/* 91 values pushed */\01245 1 5 8 46 1 4 5 2 74 6 1 4 5 3 5 4 3 126 10 1 1 0 2 7 1 2 103 0 7 0 9 8 7 9 103 11 1 8 0 5 4 8 5 101 0 3 0 0 3 87 0 3 3 0 95 0 0 3 0 79 48 47 0 0 54 52 47 55 48 55 41 39 38 37 36 35 34 33 31 29 23 21 0 15 0 14 38 12 10 21 \012CALL[ ]	/* CallFunction */\012PUSHB[ ]	/* 2 values pushed */\0126 0 \012WCVTP[ ]	/* WriteCVTInPixels */";
};
width = 775;
}
);
leftKerningGroup = C;
note = registered;
rightKerningGroup = D;
unicode = 00AE;
},
{
glyphname = trademark;
layers = (
{
layerId = "4A38D2CF-722B-4995-83FB-3A8ED46F73E6";
paths = (
{
closed = 1;
nodes = (
"4 601 LINE",
"139 601 LINE",
"139 285 LINE",
"275 285 LINE",
"275 601 LINE",
"411 601 LINE",
"411 700 LINE",
"4 700 LINE",
"4 700 LINE"
);
},
{
closed = 1;
nodes = (
"986 285 LINE",
"984 700 LINE",
"874 700 LINE",
"724 467 LINE",
"569 700 LINE",
"458 700 LINE",
"458 285 LINE",
"582 285 LINE",
"582 487 LINE",
"692 324 LINE",
"752 324 LINE",
"860 492 LINE",
"862 285 LINE",
"862 285 LINE"
);
}
);
userData = {
assembly = "NPUSHB[ ]	/* 61 values pushed */\01217 12 9 3 4 1 1 74 0 4 1 2 1 4 2 126 9 8 5 3 2 2 130 7 6 2 0 1 1 0 85 7 6 2 0 0 1 93 3 1 1 0 1 77 8 8 8 20 8 20 18 17 18 19 17 17 17 16 10 13 28 \012CALL[ ]	/* CallFunction */";
};
width = 1056;
}
);
leftKerningGroup = trademark;
note = trademark;
rightKerningGroup = trademark;
unicode = 2122;
},
{
glyphname = degree;
layers = (
{
layerId = "4A38D2CF-722B-4995-83FB-3A8ED46F73E6";
paths = (
{
closed = 1;
nodes = (
"258 358 OFFCURVE",
"341 405 OFFCURVE",
"390 485 OFFCURVE",
"390 534 QCURVE SMOOTH",
"390 583 OFFCURVE",
"341 663 OFFCURVE",
"258 710 OFFCURVE",
"208 710 QCURVE SMOOTH",
"159 710 OFFCURVE",
"76 663 OFFCURVE",
"27 583 OFFCURVE",
"27 534 QCURVE SMOOTH",
"27 485 OFFCURVE",
"76 405 OFFCURVE",
"159 358 OFFCURVE",
"208 358 QCURVE",
"208 358 LINE"
);
},
{
closed = 1;
nodes = (
"172 448 OFFCURVE",
"124 497 OFFCURVE",
"124 534 QCURVE SMOOTH",
"124 570 OFFCURVE",
"172 619 OFFCURVE",
"208 619 QCURVE SMOOTH",
"245 619 OFFCURVE",
"293 570 OFFCURVE",
"293 534 QCURVE SMOOTH",
"293 497 OFFCURVE",
"245 448 OFFCURVE",
"208 448 QCURVE",
"208 448 LINE"
);
}
);
userData = {
assembly = "PUSHB[ ]	/* 2 values pushed */\0126 100 \012WCVTP[ ]	/* WriteCVTInPixels */\012NPUSHB[ ]	/* 45 values pushed */\0120 0 0 2 3 0 2 103 5 1 3 1 1 3 87 5 1 3 3 1 95 4 1 1 3 1 79 16 16 0 0 16 27 16 26 22 20 0 15 0 14 38 6 10 21 \012CALL[ ]	/* CallFunction */\012PUSHB[ ]	/* 2 values pushed */\0126 0 \012WCVTP[ ]	/* WriteCVTInPixels */";
};
width = 417;
}
);
leftKerningGroup = degree;
note = degree;
rightKerningGroup = degree;
unicode = 00B0;
},
{
glyphname = minute;
layers = (
{
layerId = "4A38D2CF-722B-4995-83FB-3A8ED46F73E6";
paths = (
{
closed = 1;
nodes = (
"53 408 LINE",
"188 408 LINE",
"201 700 LINE",
"41 700 LINE",
"41 700 LINE"
);
}
);
userData = {
assembly = "NPUSHB[ ]	/* 16 values pushed */\0120 1 1 0 93 0 0 0 66 1 76 17 16 2 10 22 \012CALL[ ]	/* CallFunction */";
};
width = 242;
}
);
leftKerningGroup = quotedbl;
note = minute;
rightKerningGroup = quotedbl;
unicode = 2032;
},
{
glyphname = second;
layers = (
{
layerId = "4A38D2CF-722B-4995-83FB-3A8ED46F73E6";
paths = (
{
closed = 1;
nodes = (
"53 408 LINE",
"188 408 LINE",
"201 700 LINE",
"41 700 LINE",
"41 700 LINE"
);
},
{
closed = 1;
nodes = (
"273 408 LINE",
"408 408 LINE",
"421 700 LINE",
"261 700 LINE",
"261 700 LINE"
);
}
);
userData = {
assembly = "NPUSHB[ ]	/* 20 values pushed */\0123 1 1 1 0 93 2 1 0 0 66 1 76 17 17 17 16 4 10 24 \012CALL[ ]	/* CallFunction */";
};
width = 462;
}
);
leftKerningGroup = quotedbl;
note = second;
rightKerningGroup = quotedbl;
unicode = 2033;
},
{
glyphname = bar;
layers = (
{
layerId = "4A38D2CF-722B-4995-83FB-3A8ED46F73E6";
paths = (
{
closed = 1;
nodes = (
"70 -194 LINE",
"244 -194 LINE",
"244 742 LINE",
"70 742 LINE",
"70 742 LINE"
);
}
);
userData = {
assembly = "MPPEM[ ]	/* MeasurePixelPerEm */\012PUSHB[ ]	/* 1 value pushed */\01212 \012LT[ ]	/* LessThan */\012IF[ ]	/* If */\012NPUSHB[ ]	/* 11 values pushed */\0120 0 0 68 75 0 1 1 71 1 76 \012ELSE[ ]	/* Else */\012NPUSHB[ ]	/* 11 values pushed */\0120 0 0 1 93 0 1 1 71 1 76 \012EIF[ ]	/* EndIf */\012PUSHB[ ]	/* 5 values pushed */\01217 16 2 10 22 \012CALL[ ]	/* CallFunction */";
};
width = 314;
}
);
note = bar;
unicode = 007C;
},
